<svg xmlns="http://www.w3.org/2000/svg" xmlns:xlink="http://www.w3.org/1999/xlink" width="50" zoomAndPan="magnify" viewBox="0 0 37.5 37.499999" height="50" preserveAspectRatio="xMidYMid meet" version="1.0"><path fill="#54775e" d="M 4.625 7.710938 L 1.542969 7.710938 L 1.542969 32.378906 C 1.542969 34.078125 2.929688 35.464844 4.625 35.464844 L 29.296875 35.464844 L 29.296875 32.378906 L 4.625 32.378906 Z M 32.378906 1.542969 L 10.792969 1.542969 C 9.097656 1.542969 7.710938 2.929688 7.710938 4.625 L 7.710938 26.214844 C 7.710938 27.910156 9.097656 29.296875 10.792969 29.296875 L 32.378906 29.296875 C 34.078125 29.296875 35.464844 27.910156 35.464844 26.214844 L 35.464844 4.625 C 35.464844 2.929688 34.078125 1.542969 32.378906 1.542969 Z M 32.378906 26.214844 L 10.792969 26.214844 L 10.792969 4.625 L 32.378906 4.625 Z M 26.214844 20.046875 L 20.046875 20.046875 L 20.046875 16.960938 L 23.128906 16.960938 C 24.824219 16.960938 26.214844 15.589844 26.214844 13.878906 L 26.214844 10.792969 C 26.214844 9.082031 24.824219 7.710938 23.128906 7.710938 L 16.960938 7.710938 L 16.960938 10.792969 L 23.128906 10.792969 L 23.128906 13.878906 L 20.046875 13.878906 C 18.347656 13.878906 16.960938 15.25 16.960938 16.960938 L 16.960938 23.128906 L 26.214844 23.128906 Z M 26.214844 20.046875 " fill-opacity="1" fill-rule="nonzero"/></svg>