<svg xmlns="http://www.w3.org/2000/svg" xmlns:xlink="http://www.w3.org/1999/xlink" width="50" zoomAndPan="magnify" viewBox="0 0 37.5 37.499999" height="50" preserveAspectRatio="xMidYMid meet" version="1.0"><path fill="#54775e" d="M 17.132812 18.859375 L 17.132812 10.652344 L 14.824219 10.652344 C 12.269531 10.652344 10.921875 8.992188 10.921875 7.382812 C 10.921875 5.710938 12.160156 4.71875 13.816406 4.71875 C 15.722656 4.71875 17.210938 6.191406 17.210938 8.652344 L 17.210938 10.652344 L 19.796875 10.652344 L 19.796875 8.652344 C 19.796875 6.191406 21.285156 4.71875 23.1875 4.71875 C 24.84375 4.71875 26.101562 5.710938 26.101562 7.382812 C 26.101562 8.992188 24.707031 10.652344 22.183594 10.652344 L 19.875 10.652344 L 19.875 18.859375 L 30.792969 18.859375 C 32.480469 18.859375 33.394531 18.210938 33.394531 16.550781 L 33.394531 12.957031 C 33.394531 11.316406 32.480469 10.652344 30.792969 10.652344 L 27.183594 10.652344 C 28.144531 9.785156 28.71875 8.605469 28.71875 7.273438 C 28.71875 4.285156 26.347656 2.132812 23.34375 2.132812 C 21.113281 2.132812 19.300781 3.371094 18.511719 5.570312 C 17.722656 3.371094 15.894531 2.132812 13.664062 2.132812 C 10.675781 2.132812 8.289062 4.285156 8.289062 7.273438 C 8.289062 8.605469 8.847656 9.785156 9.820312 10.652344 L 6.214844 10.652344 C 4.617188 10.652344 3.609375 11.316406 3.609375 12.957031 L 3.609375 16.550781 C 3.609375 18.210938 4.539062 18.859375 6.214844 18.859375 Z M 17.132812 34.875 L 17.132812 20.515625 L 5.824219 20.515625 L 5.824219 30.941406 C 5.824219 33.527344 7.34375 34.875 9.929688 34.875 Z M 19.875 20.515625 L 19.875 34.875 L 27.074219 34.875 C 29.664062 34.875 31.179688 33.527344 31.179688 30.941406 L 31.179688 20.515625 Z M 19.875 20.515625 " fill-opacity="1" fill-rule="nonzero"/></svg>