<svg xmlns="http://www.w3.org/2000/svg" xmlns:xlink="http://www.w3.org/1999/xlink" width="50" zoomAndPan="magnify" viewBox="0 0 37.5 37.499999" height="50" preserveAspectRatio="xMidYMid meet" version="1.0"><defs><clipPath id="4cec715c84"><path d="M 4 0.148438 L 33 0.148438 L 33 37 L 4 37 Z M 4 0.148438 " clip-rule="nonzero"/></clipPath></defs><g clip-path="url(#4cec715c84)"><path fill="#54775e" d="M 18.5 0.148438 C 10.898438 0.148438 4.734375 6.3125 4.734375 13.914062 C 4.734375 16.90625 5.71875 19.652344 7.347656 21.902344 C 7.378906 21.957031 7.382812 22.015625 7.414062 22.066406 L 16.59375 35.832031 C 17.019531 36.472656 17.734375 36.855469 18.5 36.855469 C 19.265625 36.855469 19.984375 36.472656 20.410156 35.832031 L 29.585938 22.066406 C 29.621094 22.015625 29.625 21.957031 29.652344 21.902344 C 31.285156 19.652344 32.265625 16.90625 32.265625 13.914062 C 32.265625 6.3125 26.101562 0.148438 18.5 0.148438 Z M 18.5 18.5 C 15.96875 18.5 13.914062 16.445312 13.914062 13.914062 C 13.914062 11.378906 15.96875 9.324219 18.5 9.324219 C 21.035156 9.324219 23.089844 11.378906 23.089844 13.914062 C 23.089844 16.445312 21.035156 18.5 18.5 18.5 Z M 18.5 18.5 " fill-opacity="1" fill-rule="nonzero"/></g></svg>