<svg width="16" height="16" viewBox="0 0 16 16" fill="none" xmlns="http://www.w3.org/2000/svg">
<g clip-path="url(#clip0_2218_12753)">
<mask id="mask0_2218_12753" style="mask-type:luminance" maskUnits="userSpaceOnUse" x="0" y="0" width="16" height="16">
<path d="M16 0H0V16H16V0Z" fill="white"/>
</mask>
<g mask="url(#mask0_2218_12753)">
<path d="M7.31252 15.1667C4.8325 15.1667 2.8125 13.1467 2.8125 10.6667V6.66667C2.8125 3.82 5.1325 1.5 7.97919 1.5C10.8259 1.5 13.1459 3.82 13.1459 6.66667V10.3333C13.1459 11.8933 11.8725 13.1667 10.3125 13.1667C8.75252 13.1667 7.47919 11.8933 7.47919 10.3333V8C7.47919 7.72667 7.70585 7.5 7.97919 7.5C8.25252 7.5 8.47919 7.72667 8.47919 8V10.3333C8.47919 11.3467 9.29919 12.1667 10.3125 12.1667C11.3259 12.1667 12.1459 11.3467 12.1459 10.3333V6.66667C12.1459 4.36667 10.2792 2.5 7.97919 2.5C5.67917 2.5 3.8125 4.36667 3.8125 6.66667V10.6667C3.8125 12.5933 5.37917 14.1667 7.31252 14.1667C7.58585 14.1667 7.81252 14.3933 7.81252 14.6667C7.81252 14.94 7.59252 15.1667 7.31252 15.1667Z" fill="black"/>
</g>
</g>
<defs>
<clipPath id="clip0_2218_12753">
<rect width="16" height="16" fill="white"/>
</clipPath>
</defs>
</svg>
