<svg width="164" height="180" viewBox="0 0 164 180" fill="none" xmlns="http://www.w3.org/2000/svg">
<path d="M82.0601 21.0996L81.6736 20.7929C83.4278 18.5819 85.2728 16.4657 87.157 14.5029L87.5128 14.8448C85.6393 16.7959 83.8048 18.9004 82.0601 21.0996Z" fill="#407BFF"/>
<path d="M79.9767 22.9289L78.1796 25.1948L78.5664 25.5016L80.3635 23.2357L79.9767 22.9289Z" fill="#407BFF"/>
<path d="M118.684 46.9773C130.803 27.4906 132.454 8.29615 123.629 2.08206C114.805 -4.13203 97.2894 3.8909 83.0267 21.8678L42.2405 73.2766L84.0285 102.703L118.684 46.9773Z" fill="#407BFF"/>
<path opacity="0.1" d="M113.91 43.6173L78.4364 98.7638L74.0942 90.4703L109.331 40.1647C119.293 25.9366 124.873 12.9339 124.898 5.6941C124.9 5.04095 125.831 4.8792 126.046 5.49609C128.557 12.7086 124.208 27.6144 113.91 43.6173Z" fill="white"/>
<path d="M84.0298 102.711C89.6715 94.7 84.8906 81.6181 73.3515 73.4915C61.8123 65.365 47.8845 65.2713 42.2427 73.2821C36.601 81.293 41.3819 94.375 52.921 102.501C64.4602 110.628 78.388 110.722 84.0298 102.711Z" fill="#407BFF"/>
<path opacity="0.5" d="M84.0298 102.711C89.6715 94.7 84.8906 81.6181 73.3515 73.4915C61.8123 65.365 47.8845 65.2713 42.2427 73.2821C36.601 81.293 41.3819 94.375 52.921 102.501C64.4602 110.628 78.388 110.722 84.0298 102.711Z" fill="white"/>
<path opacity="0.1" d="M79.6919 64.3853C70.52 57.9264 60.1198 56.0835 53.4835 59.1022L43.1347 72.1428C49.2573 65.2911 62.3833 65.7597 73.349 73.4814C84.3192 81.2065 89.1829 93.4065 84.7888 101.481L93.476 87.5165C94.2162 80.2137 88.9603 70.9123 79.6919 64.3853Z" fill="black"/>
<path opacity="0.2" d="M94.3757 22.3457C91.8323 26.3706 89.9292 33.9071 97.4752 39.221C105.021 44.5348 111.476 40.2038 114.408 36.4528L94.3757 22.3457Z" fill="black"/>
<path d="M116.193 31.781C115.326 38.9751 107.014 44.2237 98.2824 38.0754C89.5511 31.9272 91.6918 22.3324 98.1725 19.0912C102.166 17.0944 107.25 17.9484 110.73 20.3987C114.209 22.8495 116.727 27.3484 116.193 31.781Z" fill="white"/>
<path d="M99.4681 36.3909C96.0702 33.9981 94.3344 30.879 94.5798 27.6077C94.7923 24.7776 96.522 22.2202 99.0938 20.934C102.13 19.4158 106.426 19.8888 109.544 22.0836C112.66 24.2784 114.554 28.1649 114.147 31.5344C113.803 34.3891 111.978 36.8795 109.385 38.0335C106.388 39.3671 102.866 38.7837 99.4681 36.3909Z" fill="#407BFF"/>
<path opacity="0.3" d="M99.4681 36.3909C96.0702 33.9981 94.3344 30.879 94.5798 27.6077C94.7923 24.7776 96.522 22.2202 99.0938 20.934C102.13 19.4158 106.426 19.8888 109.544 22.0836C112.66 24.2784 114.554 28.1649 114.147 31.5344C113.803 34.3891 111.978 36.8795 109.385 38.0335C106.388 39.3671 102.866 38.7837 99.4681 36.3909Z" fill="black"/>
<path d="M99.4682 36.3913C96.0703 33.9985 94.2731 30.9664 94.407 27.8535C94.523 25.1601 96.1305 22.7762 98.6025 21.6322C101.52 20.2818 105.734 20.872 108.852 23.0668C111.968 25.2616 113.944 29.031 113.656 32.2326C113.412 34.945 111.71 37.262 109.212 38.2793C106.326 39.4545 102.866 38.7841 99.4682 36.3913Z" fill="#407BFF"/>
<path opacity="0.2" d="M99.4682 36.3913C96.0703 33.9985 94.2731 30.9664 94.407 27.8535C94.523 25.1601 96.1305 22.7762 98.6025 21.6322C101.52 20.2818 105.734 20.872 108.852 23.0668C111.968 25.2616 113.944 29.031 113.656 32.2326C113.412 34.945 111.71 37.262 109.212 38.2793C106.326 39.4545 102.866 38.7841 99.4682 36.3913Z" fill="white"/>
<path opacity="0.3" d="M111.209 25.2744L95.5102 32.1985C94.7199 30.8164 94.3428 29.3478 94.4053 27.8546C94.4371 27.1206 94.5765 26.4128 94.8236 25.749L104.956 21.2808C106.329 21.6299 107.668 22.2329 108.851 23.0667C109.74 23.692 110.536 24.4411 111.209 25.2744Z" fill="white"/>
<path opacity="0.3" d="M113.462 29.74L99.0576 36.0885C98.1406 35.4047 97.3558 34.6763 96.7038 33.9021L112.378 26.9863C112.877 27.8788 113.246 28.8125 113.462 29.74Z" fill="white"/>
<path opacity="0.1" d="M129.171 17.318C128.692 13.4716 125.734 9.02065 121.06 5.72926C116.39 2.44066 111.203 1.15612 107.416 1.99835C113.858 -0.628179 119.632 -0.731923 123.629 2.08201C127.625 4.89651 129.473 10.3682 129.171 17.318Z" fill="black"/>
<path opacity="0.5" d="M73.3441 87.0179C75.1017 84.5223 73.6781 80.4931 70.1645 78.0186C66.6508 75.5441 62.3776 75.5612 60.62 78.0569C58.8624 80.5525 60.286 84.5817 63.7996 87.0562C67.3133 89.5308 71.5865 89.5136 73.3441 87.0179Z" fill="#407BFF"/>
<path opacity="0.5" d="M56.7436 84.6574C54.9861 87.1529 50.7131 87.1702 47.1991 84.6959C43.6852 82.2217 42.2612 78.1924 44.0187 75.6969C45.7763 73.2015 50.0493 73.1842 53.5632 75.6584C57.0772 78.1332 58.5012 82.162 56.7436 84.6574Z" fill="#407BFF"/>
<path opacity="0.5" d="M81.1488 101.843C79.3913 104.339 75.1182 104.356 71.6043 101.882C68.0903 99.4077 66.6664 95.3784 68.4239 92.8829C70.1814 90.3875 74.4545 90.3702 77.9684 92.8445C81.4823 95.3187 82.9058 99.3475 81.1488 101.843Z" fill="#407BFF"/>
<path opacity="0.5" d="M64.5507 99.4924C62.7932 101.988 58.5201 102.005 55.0062 99.5309C51.4922 97.0566 50.0683 93.0273 51.8258 90.5319C53.5833 88.0364 57.8564 88.0191 61.3703 90.4934C64.8843 92.9676 66.3082 96.9964 64.5507 99.4924Z" fill="#407BFF"/>
<path opacity="0.5" d="M73.3429 87.0085C73.1571 87.2724 72.9363 87.5127 72.6992 87.7214C73.6731 85.2315 72.1989 81.7828 69.0615 79.5735C65.9235 77.3636 62.1797 77.1383 60.1639 78.8941C60.2805 78.6007 60.4317 78.3118 60.618 78.048C62.3733 75.5553 66.6497 75.5364 70.1625 78.0095C73.6748 80.4832 75.0982 84.5153 73.3429 87.0085Z" fill="#407BFF"/>
<path opacity="0.5" d="M56.7413 84.6586C56.555 84.9229 56.3381 85.1583 56.0977 85.3714C57.0749 82.8776 55.6052 79.4317 52.4627 77.219C49.3247 75.0092 45.5809 74.7838 43.5618 76.5442C43.6812 76.2463 43.8301 75.9624 44.0159 75.698C45.7745 73.2009 50.0476 73.1864 53.5604 75.6601C57.0777 78.1366 58.4994 82.1614 56.7413 84.6586Z" fill="#407BFF"/>
<path opacity="0.5" d="M81.1493 101.846C80.963 102.111 80.7455 102.346 80.5057 102.559C81.4829 100.065 80.0093 96.6167 76.8707 94.4068C73.7282 92.1942 69.989 91.9716 67.9698 93.7319C68.0898 93.4341 68.2381 93.1502 68.4244 92.8858C70.1831 90.3887 74.4517 90.3708 77.9684 92.8479C81.4812 95.321 82.9074 99.3492 81.1493 101.846Z" fill="#407BFF"/>
<path opacity="0.5" d="M64.5506 99.4925C64.3644 99.7569 64.1513 99.9956 63.907 100.205C64.8808 97.716 63.41 94.2624 60.272 92.053C57.134 89.8432 53.3869 89.6223 51.3712 91.3781C51.4861 91.0775 51.6389 90.7964 51.8252 90.532C53.5838 88.0349 57.8569 88.0204 61.3697 90.4941C64.8825 92.9672 66.3087 96.9954 64.5506 99.4925Z" fill="#407BFF"/>
<path d="M69.917 40.848C69.917 40.848 62.3916 50.6179 55.8328 59.0307C53.9548 61.4397 50.9384 62.5887 47.9069 62.2133C42.1759 61.5039 32.8238 65.5694 32.8238 65.5694C32.8238 65.5694 50.5 36.5627 69.917 40.848Z" fill="#407BFF"/>
<path opacity="0.3" d="M69.917 40.848C69.917 40.848 62.3916 50.6179 55.8328 59.0307C53.9548 61.4397 50.9384 62.5887 47.9069 62.2133C42.1759 61.5039 32.8238 65.5694 32.8238 65.5694C32.8238 65.5694 50.5 36.5627 69.917 40.848Z" fill="black"/>
<path d="M105.232 65.7163C105.232 65.7163 98.5701 76.0936 92.8597 85.1043C91.2248 87.6845 91.159 90.9112 92.5339 93.6393C95.1331 98.7964 94.4571 108.971 94.4571 108.971C94.4571 108.971 115.811 82.5531 105.232 65.7163Z" fill="#407BFF"/>
<path opacity="0.3" d="M105.232 65.7163C105.232 65.7163 98.5701 76.0936 92.8597 85.1043C91.2248 87.6845 91.159 90.9112 92.5339 93.6393C95.1331 98.7964 94.4571 108.971 94.4571 108.971C94.4571 108.971 115.811 82.5531 105.232 65.7163Z" fill="black"/>
<path d="M129.562 140.34C136.503 123.293 106.421 118.463 94.4872 122.741C82.5543 127.018 70.4134 130.199 69.9354 118.792C69.4574 107.386 78.6477 100.312 74.272 97.6801C71.8429 96.2188 71.1491 98.8163 69.9549 102.558C66.2792 114.072 45.4968 116.818 55.0586 133.489C64.621 150.159 59.543 146.54 43.4319 153.23C27.3202 159.92 35.6053 179.176 51.191 179.176C66.7767 179.176 115.891 179.176 144.95 179.176C187.919 179.176 147.238 96.9277 129.562 140.34Z" fill="#407BFF"/>
<path opacity="0.6" d="M129.562 140.34C136.503 123.293 106.421 118.463 94.4872 122.741C82.5543 127.018 70.4134 130.199 69.9354 118.792C69.4574 107.386 78.6477 100.312 74.272 97.6801C71.8429 96.2188 71.1491 98.8163 69.9549 102.558C66.2792 114.072 45.4968 116.818 55.0586 133.489C64.621 150.159 59.543 146.54 43.4319 153.23C27.3202 159.92 35.6053 179.176 51.191 179.176C66.7767 179.176 115.891 179.176 144.95 179.176C187.919 179.176 147.238 96.9277 129.562 140.34Z" fill="white"/>
<path d="M50.3812 80.9278C49.1306 76.5873 42.3711 82.0567 35.7085 88.6484C28.9919 95.2937 25.7646 110.347 19.3258 118.189C12.8417 126.086 -5.56349 133.183 1.64789 145.005C12.2862 162.443 -12.1641 179.176 16.7896 179.176C45.7433 179.176 65.3204 179.176 76.1779 179.176C87.0354 179.176 98.8127 165.898 81.9017 156.849C64.9913 147.801 39.6564 168.872 32.8232 148.789C29.4325 138.823 41.728 143.396 36.0376 127.073C30.3473 110.751 30.7154 106.31 33.6208 99.0352C40.6888 81.3417 52.2804 87.5184 50.3812 80.9278Z" fill="#407BFF"/>
<path opacity="0.6" d="M50.3812 80.9278C49.1306 76.5873 42.3711 82.0567 35.7085 88.6484C28.9919 95.2937 25.7646 110.347 19.3258 118.189C12.8417 126.086 -5.56349 133.183 1.64789 145.005C12.2862 162.443 -12.1641 179.176 16.7896 179.176C45.7433 179.176 65.3204 179.176 76.1779 179.176C87.0354 179.176 98.8127 165.898 81.9017 156.849C64.9913 147.801 39.6564 168.872 32.8232 148.789C29.4325 138.823 41.728 143.396 36.0376 127.073C30.3473 110.751 30.7154 106.31 33.6208 99.0352C40.6888 81.3417 52.2804 87.5184 50.3812 80.9278Z" fill="white"/>
<path d="M62.6883 82.9299C64.1624 80.2392 69.2147 81.8551 69.1043 85.3712C68.9938 88.888 55.9064 93.504 58.3377 105.655C60.769 117.806 84.1294 118.683 89.6134 130.857C95.0968 143.031 73.8592 144.74 80.1704 152.353C86.4815 159.967 106.065 142.482 119.993 146.979C133.922 151.476 147.85 179.176 122.296 179.176C96.7422 179.176 60.6831 179.176 43.5624 179.176C26.4417 179.176 13.9388 143.817 30.3902 129.276C46.841 114.735 33.5706 119.451 39.7127 110.129C45.8537 100.806 57.0403 93.2391 62.6883 82.9299Z" fill="#407BFF"/>
<path opacity="0.8" d="M62.6883 82.9299C64.1624 80.2392 69.2147 81.8551 69.1043 85.3712C68.9938 88.888 55.9064 93.504 58.3377 105.655C60.769 117.806 84.1294 118.683 89.6134 130.857C95.0968 143.031 73.8592 144.74 80.1704 152.353C86.4815 159.967 106.065 142.482 119.993 146.979C133.922 151.476 147.85 179.176 122.296 179.176C96.7422 179.176 60.6831 179.176 43.5624 179.176C26.4417 179.176 13.9388 143.817 30.3902 129.276C46.841 114.735 33.5706 119.451 39.7127 110.129C45.8537 100.806 57.0403 93.2391 62.6883 82.9299Z" fill="white"/>
</svg>
