<svg width="26" height="26" viewBox="0 0 26 26" fill="none" xmlns="http://www.w3.org/2000/svg">
<circle cx="13" cy="13" r="13" fill="#D3F0FF"/>
<path d="M20.0629 10.2826C20.0632 10.0256 20.003 9.77218 19.8874 9.54272C19.7717 9.31326 19.6038 9.11417 19.3971 8.9615C19.1904 8.80882 18.9508 8.70683 18.6974 8.66374C18.4441 8.62065 18.1842 8.63766 17.9387 8.71341C17.6931 8.78915 17.4688 8.92152 17.2838 9.09983C17.0988 9.27815 16.9582 9.49743 16.8735 9.74001C16.7887 9.98259 16.7621 10.2417 16.7959 10.4964C16.8296 10.7512 16.9227 10.9944 17.0676 11.2066L15.4979 13.1402L14.0864 9.89584C14.3438 9.67917 14.5284 9.38859 14.6151 9.06348C14.7018 8.73837 14.6865 8.39445 14.5712 8.07835C14.4559 7.76225 14.2461 7.48925 13.9704 7.29635C13.6947 7.10346 13.3664 7 13.0299 7C12.6934 7 12.3651 7.10346 12.0894 7.29635C11.8137 7.48925 11.604 7.76225 11.4887 8.07835C11.3733 8.39445 11.358 8.73837 11.4447 9.06348C11.5314 9.38859 11.716 9.67917 11.9735 9.89584L10.5655 13.1384L8.99574 11.2048C9.19739 10.9094 9.29694 10.5561 9.27924 10.1988C9.26154 9.84155 9.12756 9.49985 8.89771 9.22576C8.66785 8.95168 8.35471 8.76023 8.00598 8.68057C7.65725 8.60091 7.29204 8.63741 6.96597 8.78451C6.6399 8.9316 6.37085 9.18124 6.19978 9.49539C6.02871 9.80955 5.965 10.171 6.01836 10.5247C6.07171 10.8784 6.23921 11.205 6.49534 11.4547C6.75147 11.7044 7.0822 11.8636 7.43715 11.908L8.28558 16.9992C8.32206 17.218 8.43499 17.4169 8.60429 17.5603C8.7736 17.7038 8.98829 17.7825 9.21019 17.7826H16.8532C17.0751 17.7825 17.2898 17.7038 17.4591 17.5603C17.6284 17.4169 17.7413 17.218 17.7778 16.9992L18.6256 11.9103C19.0224 11.8607 19.3874 11.668 19.6521 11.3682C19.9168 11.0685 20.0629 10.6824 20.0629 10.2826ZM13.0317 7.93881C13.1707 7.93881 13.3067 7.98005 13.4223 8.05731C13.5379 8.13457 13.6281 8.24438 13.6813 8.37286C13.7345 8.50134 13.7484 8.64272 13.7213 8.77911C13.6942 8.9155 13.6272 9.04079 13.5289 9.13912C13.4305 9.23746 13.3052 9.30442 13.1689 9.33155C13.0325 9.35868 12.8911 9.34476 12.7626 9.29154C12.6341 9.23832 12.5243 9.1482 12.4471 9.03257C12.3698 8.91694 12.3286 8.781 12.3286 8.64194C12.3286 8.45546 12.4026 8.27661 12.5345 8.14475C12.6664 8.01289 12.8452 7.93881 13.0317 7.93881ZM6.93793 10.2826C6.93793 10.1435 6.97917 10.0076 7.05643 9.89193C7.13369 9.7763 7.2435 9.68618 7.37198 9.63296C7.50046 9.57974 7.64183 9.56582 7.77823 9.59295C7.91462 9.62008 8.0399 9.68704 8.13824 9.78538C8.23657 9.88371 8.30354 10.009 8.33067 10.1454C8.3578 10.2818 8.34387 10.4232 8.29066 10.5516C8.23744 10.6801 8.14732 10.7899 8.03169 10.8672C7.91606 10.9444 7.78012 10.9857 7.64105 10.9857C7.45457 10.9857 7.27573 10.9116 7.14387 10.7797C7.01201 10.6479 6.93793 10.469 6.93793 10.2826ZM16.8532 16.8451H9.21019L8.39457 11.9537L10.3241 14.3255C10.3678 14.3801 10.4231 14.4242 10.4861 14.4546C10.549 14.4851 10.618 14.501 10.6879 14.5013C10.7091 14.5014 10.7302 14.5 10.7512 14.4972C10.8311 14.4864 10.9068 14.4551 10.971 14.4064C11.0353 14.3578 11.0859 14.2934 11.118 14.2195L12.8348 10.2703C12.9655 10.2867 13.0978 10.2867 13.2286 10.2703L14.9454 14.2195C14.9775 14.2934 15.0281 14.3578 15.0923 14.4064C15.1566 14.4551 15.2323 14.4864 15.3121 14.4972C15.3331 14.5 15.3543 14.5014 15.3754 14.5013C15.4453 14.501 15.5143 14.4851 15.5773 14.4546C15.6402 14.4242 15.6956 14.3801 15.7393 14.3255L17.6688 11.9513L16.8532 16.8451ZM18.4223 10.9857C18.2832 10.9857 18.1473 10.9444 18.0317 10.8672C17.916 10.7899 17.8259 10.6801 17.7727 10.5516C17.7195 10.4232 17.7056 10.2818 17.7327 10.1454C17.7598 10.009 17.8268 9.88371 17.9251 9.78538C18.0235 9.68704 18.1487 9.62008 18.2851 9.59295C18.4215 9.56582 18.5629 9.57974 18.6914 9.63296C18.8199 9.68618 18.9297 9.7763 19.0069 9.89193C19.0842 10.0076 19.1254 10.1435 19.1254 10.2826C19.1254 10.469 19.0513 10.6479 18.9195 10.7797C18.7876 10.9116 18.6088 10.9857 18.4223 10.9857Z" fill="#0051FF"/>
<path d="M11 14L8 11.5L9 17.5H17.0526L18 11.5L15.5 14.5L13 9.5L11 14Z" fill="#0051FF"/>
<rect x="9" y="19" width="8" height="1" rx="0.5" fill="#0051FF"/>
</svg>
