<svg width="50" height="50" viewBox="0 0 50 50" fill="none" xmlns="http://www.w3.org/2000/svg">
<path fill-rule="evenodd" clip-rule="evenodd" d="M26.9404 0.264469C27.2701 0.1556 27.7992 0.03879 28.0739 0.0142703C28.939 -0.0629565 29.7622 0.172724 30.5896 0.734467C31.1519 1.11624 31.4234 1.36019 32.8173 2.7363C33.4258 3.33699 34.0532 3.93195 34.2116 4.05843C35.3355 4.95608 36.0905 5.22892 38.3942 5.56993C40.3863 5.8648 40.9973 6.01255 41.7818 6.3889C42.2546 6.61576 42.554 6.82204 42.881 7.14613C43.4401 7.70036 43.8268 8.48581 44.0897 9.60114C44.2032 10.0825 44.2708 10.4694 44.4263 11.5257C44.7528 13.7447 45.0087 14.5315 45.7107 15.4747C46.0727 15.9611 46.2666 16.1723 47.4415 17.3602C48.0599 17.9853 48.6936 18.6536 48.8499 18.8453C49.5148 19.6608 49.8591 20.3501 49.9768 21.101C50.0281 21.4283 49.9909 22.0974 49.8995 22.4907C49.7238 23.2475 49.5205 23.728 48.6532 25.4375C48.2979 26.1376 47.9466 26.8536 47.8725 27.0287C47.4438 28.0404 47.3061 28.8045 47.3676 29.8308C47.4008 30.384 47.4393 30.6725 47.6532 31.969C47.906 33.5018 47.9227 33.6541 47.9244 34.4392C47.9256 34.9758 47.9139 35.2 47.8738 35.4132C47.7176 36.2428 47.3923 36.8545 46.8072 37.4185C46.2319 37.973 45.704 38.3039 44.0639 39.1377C42.7934 39.7837 42.4184 39.9925 41.9101 40.3373C41.2418 40.7906 40.7905 41.2419 40.3371 41.9103C39.9923 42.4185 39.7835 42.7935 39.1375 44.064C38.3037 45.7041 37.9728 46.2319 37.4183 46.8072C36.8595 47.3868 36.2699 47.7032 35.4353 47.8713C35.2213 47.9144 35.0207 47.9252 34.454 47.9244C33.6522 47.9233 33.5139 47.9081 31.9687 47.6531C30.7077 47.445 30.3892 47.4026 29.8285 47.3679C28.811 47.305 28.0398 47.4439 27.0283 47.8725C26.8532 47.9466 26.1372 48.298 25.437 48.6532C23.7275 49.5205 23.247 49.7238 22.4902 49.8995C22.0969 49.9909 21.4277 50.0281 21.1005 49.9768C20.3496 49.8591 19.6603 49.5148 18.8447 48.8499C18.653 48.6936 17.9847 48.0599 17.3596 47.4416C16.1717 46.2666 15.9605 46.0727 15.4741 45.7108C14.5452 45.0195 13.7287 44.7499 11.6311 44.4421C11.2227 44.3821 10.684 44.2987 10.4339 44.2566C8.83429 43.9875 7.82274 43.5644 7.14536 42.8811C6.82126 42.5542 6.61498 42.2548 6.38811 41.7819C6.01176 40.9975 5.864 40.3865 5.56913 38.3945C5.22848 36.0932 4.95076 35.3243 4.05839 34.2119C3.93136 34.0535 3.33585 33.4261 2.73499 32.8176C2.13417 32.2092 1.54005 31.5954 1.41475 31.4538C0.0154629 29.8712 -0.298026 28.6414 0.264029 26.9394C0.444642 26.3925 0.616344 26.0168 1.31058 24.6494C1.98675 23.3176 2.16324 22.9335 2.35428 22.3782C2.75748 21.2061 2.75836 20.4282 2.3591 18.0573C2.27629 17.5655 2.18734 17.0005 2.16139 16.8017C1.85557 14.4565 2.27153 13.2117 3.72153 12.1326C4.23279 11.7521 4.90887 11.3722 6.43261 10.6092C8.7577 9.44505 9.44432 8.75844 10.6085 6.43339C11.3715 4.90968 11.7514 4.23361 12.1319 3.72236C13.211 2.27239 14.4559 1.85644 16.8011 2.16225C16.9999 2.1882 17.5649 2.27715 18.0567 2.35996C20.4277 2.75921 21.2056 2.75833 22.3777 2.35514C22.933 2.1641 23.3171 1.98761 24.649 1.31146C26.0172 0.616809 26.392 0.445534 26.9404 0.264469Z" fill="#007FFF"/>
<g clip-path="url(#clip0_8047_691)">
<path d="M9.72683 23.8485C9.73648 23.7054 9.73069 23.5874 9.70558 23.4946C9.6573 23.3206 9.55108 23.2258 9.38691 23.2142C9.29035 23.2065 9.21309 23.2432 9.15515 23.3244C9.09721 23.4057 9.04313 23.5333 8.98906 23.7112L8.89635 24.0148C8.80558 24.3126 8.71481 24.5176 8.62597 24.6278C8.47725 24.8134 8.25901 24.8966 7.97317 24.8753C7.71244 24.856 7.50386 24.7457 7.34549 24.5427C7.18712 24.3397 7.12145 24.0554 7.14849 23.688C7.17167 23.3805 7.2721 23.1253 7.44978 22.9203C7.62746 22.7153 7.87274 22.6186 8.18176 22.6322L8.13927 23.2181C7.96352 23.2161 7.83412 23.2819 7.74914 23.4192C7.69313 23.5101 7.6603 23.6261 7.65064 23.7673C7.63905 23.9239 7.6603 24.0515 7.71824 24.1501C7.77425 24.2488 7.85922 24.301 7.97317 24.3106C8.07747 24.3184 8.15858 24.2778 8.21652 24.1888C8.25515 24.1327 8.30536 24.009 8.36524 23.8175L8.5236 23.3244C8.59313 23.1079 8.67425 22.9474 8.77082 22.841C8.91953 22.6766 9.12425 22.6051 9.38498 22.6244C9.65151 22.6438 9.86395 22.7617 10.0243 22.9783C10.1846 23.1949 10.2522 23.4888 10.2251 23.8601C10.1981 24.2391 10.088 24.533 9.89872 24.7361C9.70945 24.941 9.46417 25.0319 9.16095 25.0087L9.20344 24.4267C9.33863 24.4189 9.43906 24.3899 9.51052 24.3397C9.63799 24.2488 9.70945 24.0844 9.72683 23.8446V23.8485Z" fill="white"/>
<path d="M10.1958 20.3679L9.91383 21.4063L10.4392 21.7602L10.2711 22.377L7.72949 20.6019L7.91104 19.9367L10.9992 19.7065L10.8254 20.3447L10.1977 20.3679H10.1958ZM9.66662 20.4008L8.4634 20.451L9.47349 21.1162L9.66855 20.4008H9.66662Z" fill="white"/>
<path d="M9.33316 16.4153L9.80248 16.6318L9.43552 17.4247L11.616 18.4341L11.3591 18.991L9.17865 17.9816L8.80977 18.7783L8.34045 18.5617L9.33316 16.4133V16.4153Z" fill="white"/>
<path d="M9.75952 15.748L10.0821 15.2356L12.5522 16.7942L12.2297 17.3086L9.75952 15.75V15.748Z" fill="white"/>
<path d="M13.2661 15.1351C13.3588 15.0249 13.4206 14.9244 13.4554 14.8354C13.5191 14.6652 13.4863 14.5279 13.3607 14.4216C13.2873 14.3597 13.2023 14.3442 13.1077 14.3752C13.015 14.4061 12.8933 14.4796 12.7466 14.5918L12.4955 14.7832C12.2483 14.9727 12.0551 15.0849 11.9199 15.1216C11.6901 15.1854 11.4661 15.1255 11.2459 14.9418C11.045 14.7735 10.9408 14.5608 10.9292 14.3036C10.9195 14.0464 11.0315 13.7757 11.2691 13.4934C11.4661 13.2575 11.6978 13.1086 11.9624 13.0467C12.227 12.9848 12.482 13.0506 12.7253 13.242L12.3487 13.6926C12.2077 13.5881 12.0629 13.5669 11.9141 13.6288C11.8156 13.6694 11.721 13.7448 11.6302 13.8531C11.5298 13.973 11.4738 14.0909 11.4622 14.2031C11.4506 14.3152 11.4873 14.4081 11.5742 14.4815C11.6534 14.5492 11.7442 14.5628 11.8427 14.526C11.9064 14.5028 12.0204 14.4313 12.1787 14.3114L12.594 14.0039C12.7755 13.8685 12.9378 13.7873 13.0768 13.7564C13.2931 13.7119 13.5017 13.7719 13.7006 13.9401C13.9054 14.1122 14.0096 14.3326 14.0135 14.6014C14.0174 14.8702 13.8996 15.1487 13.6601 15.4349C13.4167 15.7269 13.1579 15.9009 12.8837 15.955C12.6114 16.0111 12.3584 15.9415 12.1247 15.7462L12.4993 15.2995C12.6133 15.3711 12.7137 15.4078 12.7987 15.4078C12.9551 15.4078 13.1096 15.3169 13.2642 15.1332L13.2661 15.1351Z" fill="white"/>
<path d="M14.7946 10.9599L13.6725 11.8997L14.1032 12.416L15.0863 11.5922L15.4107 11.9809L14.4277 12.8047L15.2137 13.7445L14.7483 14.1332L12.8768 11.8939L14.4644 10.5635L14.7927 10.958L14.7946 10.9599Z" fill="white"/>
<path d="M17.7312 11.2713L16.8002 11.8108L16.9258 12.4315L16.3734 12.7506L15.8114 9.69917L16.4082 9.35303L18.7663 11.3641L18.1947 11.6967L17.7312 11.2713ZM17.3314 10.9213L16.441 10.1091L16.6902 11.2926L17.3314 10.9213Z" fill="white"/>
<path d="M21.0556 10.3491C20.9127 10.6082 20.6809 10.7919 20.3584 10.8983C19.9605 11.0317 19.6052 11.0085 19.2903 10.8306C18.9775 10.6507 18.7438 10.3355 18.5951 9.88885C18.4328 9.40541 18.4367 8.98966 18.6086 8.63965C18.7573 8.33605 19.0064 8.12528 19.3541 8.00925C19.8195 7.85262 20.2116 7.89129 20.5283 8.12528C20.7041 8.25677 20.8258 8.4076 20.8934 8.57777L20.314 8.77115C20.2328 8.65125 20.1498 8.56617 20.0687 8.51976C19.9238 8.43467 19.7481 8.42694 19.5414 8.49655C19.3309 8.5681 19.1938 8.70733 19.13 8.91811C19.0663 9.12889 19.0856 9.38994 19.1899 9.69934C19.2942 10.0087 19.4371 10.2215 19.6167 10.3336C19.7964 10.4458 19.9856 10.467 20.1846 10.4013C20.3873 10.3336 20.5206 10.2157 20.5824 10.0455C20.6172 9.9546 20.6307 9.83084 20.621 9.6742L21.1946 9.48276C21.2449 9.80183 21.2004 10.09 21.0575 10.3491H21.0556Z" fill="white"/>
<path d="M23.7392 7.15063L23.8107 7.66308L22.9454 7.78297L23.2757 10.1653L22.6673 10.2504L22.337 7.86805L21.4679 7.98794L21.3965 7.4755L23.7392 7.15063Z" fill="white"/>
<path d="M24.5283 7.14862L25.1348 7.14282L25.1657 10.0647L24.5592 10.0705L24.5283 7.14862Z" fill="white"/>
<path d="M27.0971 10.2948C26.6838 10.2368 26.3845 10.0801 26.1971 9.82488C25.9422 9.50774 25.8514 9.09005 25.9229 8.56988C25.9963 8.04003 26.1991 7.66102 26.5274 7.4367C26.7765 7.2414 27.1087 7.17372 27.522 7.23173C27.9353 7.28974 28.2347 7.44637 28.422 7.70163C28.677 8.00909 28.7677 8.42678 28.6924 8.95663C28.621 9.4768 28.4201 9.85388 28.0898 10.0898C27.8407 10.2851 27.5085 10.3528 27.0952 10.2948H27.0971ZM27.775 9.59669C27.9392 9.44006 28.0454 9.19834 28.0898 8.87154C28.1343 8.54667 28.0995 8.28562 27.9836 8.08838C27.8677 7.89113 27.6901 7.77704 27.4506 7.74224C27.2111 7.70936 27.0083 7.77124 26.8403 7.92787C26.6722 8.08451 26.566 8.32623 26.5216 8.65303C26.4772 8.97983 26.5119 9.24089 26.6297 9.43619C26.7476 9.63344 26.9272 9.74753 27.1667 9.7804C27.4061 9.81327 27.6089 9.75139 27.775 9.59476V9.59669Z" fill="white"/>
<path d="M31.2185 11.3604L30.6449 11.1535L30.2258 8.79623L29.5228 10.7493L28.9878 10.5559L29.9766 7.80615L30.5792 8.02273L30.9829 10.3374L31.6743 8.41721L32.2093 8.61059L31.2204 11.3604H31.2185Z" fill="white"/>
<path d="M34.5589 12.0643L34.0509 11.6911L33.3749 12.6154L32.894 12.2635L34.6187 9.90625L35.7737 10.7532C35.9359 10.877 36.0479 10.9911 36.1097 11.0936C36.1715 11.1961 36.2063 11.3063 36.2159 11.4242C36.2237 11.5209 36.2159 11.6176 36.1928 11.7124C36.1696 11.8071 36.1232 11.8999 36.0556 11.9928C35.9745 12.1049 35.8644 12.1939 35.7292 12.2615C35.5941 12.3292 35.4453 12.337 35.2812 12.2867C35.3584 12.4104 35.3893 12.5284 35.3758 12.6425C35.3623 12.7566 35.2947 12.8958 35.175 13.0602L35.0591 13.2188C34.9799 13.327 34.9316 13.4025 34.9123 13.4469C34.8814 13.5165 34.8775 13.5842 34.9046 13.6461L34.8621 13.7061L34.3213 13.3096C34.3445 13.2458 34.3638 13.1955 34.3812 13.1607C34.4179 13.0853 34.4604 13.0118 34.5086 12.9422L34.6651 12.7198C34.7732 12.5671 34.8196 12.4472 34.8022 12.3582C34.7868 12.2693 34.7056 12.1726 34.5608 12.0662L34.5589 12.0643ZM35.1711 11.8555C35.3024 11.8825 35.4164 11.8303 35.5129 11.6969C35.6172 11.5538 35.6404 11.4223 35.5805 11.3043C35.5477 11.2367 35.4782 11.1651 35.3719 11.0878L34.8003 10.6681L34.3368 11.3024L34.8949 11.7104C35.005 11.7916 35.0977 11.84 35.173 11.8555H35.1711Z" fill="white"/>
<path d="M36.8529 14.9375L36.1267 14.1428L35.5473 14.398L35.1166 13.9262L37.973 12.7234L38.4385 13.232L36.9822 15.9682L36.5361 15.479L36.8529 14.9356V14.9375ZM37.1097 14.4715L37.7123 13.4273L36.6095 13.9242L37.1097 14.4715Z" fill="white"/>
<path d="M40.6473 16.3106L40.2128 16.591L39.7376 15.8562L37.7213 17.1634L37.3872 16.6471L39.4035 15.3399L38.9265 14.6031L39.361 14.3228L40.6454 16.3106H40.6473Z" fill="white"/>
<path d="M40.9885 17.0339L41.2492 17.5812L38.6149 18.8401L38.3541 18.2928L40.9885 17.0339Z" fill="white"/>
<path d="M39.6142 21.6941L39.4327 21.1102L41.0569 19.3524L39.0773 19.9712L38.9073 19.4278L41.6943 18.5576L41.8855 19.1687L40.2863 20.8878L42.2312 20.2806L42.4011 20.824L39.6142 21.6941Z" fill="white"/>
<path d="M39.9852 24.0864C39.8712 23.9356 39.8036 23.7422 39.7805 23.5082C39.7438 23.1234 39.8461 22.7947 40.0895 22.522C40.3328 22.2397 40.6882 22.0772 41.1536 22.0328C41.6249 21.9883 42.0131 22.0811 42.3221 22.3132C42.6311 22.5452 42.8049 22.8739 42.8455 23.3013C42.8802 23.6706 42.8146 23.9762 42.6504 24.2198C42.4843 24.4615 42.2642 24.6124 41.986 24.6723L41.93 24.0748C42.1232 24.0091 42.2526 23.8834 42.3144 23.6977C42.3472 23.5933 42.3588 23.4811 42.3472 23.3574C42.324 23.1234 42.2178 22.9397 42.0266 22.8063C41.8354 22.6728 41.5631 22.6226 41.2077 22.6574C40.8504 22.6922 40.6051 22.7966 40.4719 22.9745C40.3386 23.1524 40.2826 23.3438 40.3019 23.5527C40.3212 23.7577 40.3965 23.9182 40.5259 24.0381C40.6553 24.158 40.8176 24.2218 41.0107 24.2353L40.947 23.5624L41.4317 23.516L41.5476 24.7284L39.989 24.8773L39.9504 24.4751L40.3077 24.3784C40.159 24.274 40.0508 24.1792 39.9852 24.0903V24.0864Z" fill="white"/>
<path d="M39.2575 28.9435C39.3133 28.7709 39.5499 28.7606 39.6251 28.9188L40.7145 31.3842L40.7731 31.4653L40.7142 31.3844L40.7144 31.3843C40.575 31.4852 40.5159 31.6658 40.5698 31.8308C40.5699 31.8308 40.5699 31.8309 40.5699 31.831L40.9309 32.9464C40.9902 33.1295 40.78 33.2802 40.6271 33.1692L39.6789 32.4789L39.6787 32.4787C39.5394 32.378 39.3512 32.378 39.2119 32.4787L39.2117 32.4789L38.2634 33.1693L38.2634 33.1693C38.1082 33.2822 37.899 33.1312 37.9595 32.9468L37.9596 32.9464L38.3207 31.831C38.3207 31.8309 38.3207 31.8308 38.3207 31.8307C38.375 31.665 38.3149 31.4872 38.1771 31.3849L38.1764 31.3844L37.2281 30.6941C37.2281 30.6941 37.2281 30.6941 37.2281 30.6941C37.0725 30.5808 37.1522 30.3354 37.345 30.3354H38.5173C38.6904 30.3354 38.8423 30.224 38.8962 30.0596L38.8963 30.0593L39.2575 28.9435L39.2575 28.9435ZM41.6625 30.6941L41.7212 30.7747L41.6625 30.6941C41.6625 30.6941 41.6625 30.6941 41.6625 30.6941Z" fill="white" stroke="#3171FB" stroke-width="0.2"/>
<path d="M33.7657 36.0699C33.6906 35.9118 33.454 35.9221 33.3981 36.0946L33.3981 36.0946L33.037 37.2104L33.0368 37.2108C32.983 37.3751 32.831 37.4865 32.6579 37.4865H31.4856C31.2929 37.4865 31.2132 37.7319 31.3687 37.8452L32.317 38.5355L32.3177 38.5361C32.4556 38.6383 32.5156 38.8161 32.4614 38.9819L32.4614 38.9817L32.3663 38.9509L32.4613 38.9821L33.7657 36.0699ZM33.7657 36.0699L33.7737 36.0946L34.1349 37.2104L34.135 37.2108C34.1889 37.3751 34.3408 37.4865 34.5139 37.4865H35.6862C35.8779 37.4865 35.958 37.7324 35.8031 37.8452C35.8031 37.8452 35.8031 37.8452 35.8031 37.8452L34.8551 38.5354M33.7657 36.0699L34.8551 38.5354M34.8551 38.5354C34.8551 38.5354 34.855 38.5354 34.855 38.5355C34.7156 38.6364 34.6565 38.8169 34.7105 38.9819M34.8551 38.5354L34.7105 38.9819M34.7105 38.9819C34.7105 38.982 34.7105 38.982 34.7105 38.9821L35.0716 40.0975L34.7105 38.9819ZM34.7677 40.3203L34.709 40.4012L34.7678 40.3204L34.7677 40.3203Z" fill="white" stroke="#3171FB" stroke-width="0.2"/>
<path d="M24.8351 38.6625C24.891 38.4899 25.1276 38.4796 25.2027 38.6378L25.2107 38.6625L25.5719 39.7783L25.572 39.7786C25.6259 39.943 25.7778 40.0544 25.9509 40.0544H27.1233C27.3149 40.0544 27.395 40.3003 27.2402 40.4131C27.2401 40.4131 27.2401 40.4131 27.2401 40.4131L26.2921 41.1032C26.2921 41.1033 26.292 41.1033 26.2919 41.1034C26.1526 41.2043 26.0935 41.3848 26.1475 41.5498C26.1475 41.5498 26.1475 41.5499 26.1475 41.5499L26.5086 42.6654C26.5678 42.8485 26.3576 42.9991 26.2047 42.8882L25.2566 42.1979L25.2563 42.1977C25.117 42.097 24.9288 42.097 24.7895 42.1977L24.7893 42.1979L23.841 42.8883L23.841 42.8883C23.6859 43.0012 23.4766 42.8501 23.5371 42.6658L23.5373 42.6654L23.8983 41.5499C23.8983 41.5499 23.8984 41.5498 23.8984 41.5498C23.9526 41.384 23.8926 41.2062 23.7547 41.1039L23.754 41.1034L22.8057 40.4131C22.6502 40.2998 22.7299 40.0544 22.9226 40.0544H24.0949C24.268 40.0544 24.42 39.943 24.4739 39.7786L24.474 39.7783L24.8351 38.6625L24.8351 38.6625Z" fill="white" stroke="#3171FB" stroke-width="0.2"/>
<path d="M16.2674 36.0946C16.3232 35.9221 16.5598 35.9118 16.635 36.0699L16.643 36.0946L17.0041 37.2104L17.0043 37.2108C17.0581 37.3751 17.2101 37.4865 17.3832 37.4865H18.5555C18.7471 37.4865 18.8273 37.7324 18.6724 37.8452C18.6724 37.8452 18.6724 37.8452 18.6724 37.8452L17.7244 38.5354C17.7243 38.5354 17.7243 38.5354 17.7242 38.5355C17.5848 38.6364 17.5257 38.8169 17.5797 38.9819C17.5798 38.982 17.5798 38.982 17.5798 38.9821L17.9408 40.0975C18.0001 40.2807 17.7899 40.4313 17.637 40.3203L16.6888 39.63L16.6886 39.6299C16.5493 39.5292 16.3611 39.5292 16.2218 39.6299L16.2215 39.63L15.2733 40.3204L15.2732 40.3204C15.1181 40.4334 14.9089 40.2823 14.9694 40.0979L14.9695 40.0975L15.3306 38.9821C15.3306 38.982 15.3306 38.9819 15.3306 38.9819C15.3848 38.8161 15.3248 38.6383 15.187 38.5361L15.1862 38.5355L14.238 37.8452C14.0824 37.7319 14.1621 37.4865 14.3548 37.4865H15.5272C15.7003 37.4865 15.8522 37.3751 15.9061 37.2108L15.9062 37.2104L16.2674 36.0946L16.2674 36.0946Z" fill="white" stroke="#3171FB" stroke-width="0.2"/>
<path d="M10.7756 28.9188C10.7005 28.7606 10.4638 28.7709 10.408 28.9435L10.408 28.9435L10.0468 30.0593L10.0467 30.0596C9.99286 30.224 9.8409 30.3354 9.6678 30.3354H8.49547C8.30275 30.3354 8.22304 30.5808 8.37858 30.6941C8.37858 30.6941 8.37858 30.6941 8.37859 30.6941L9.32686 31.3844L9.32758 31.3849C9.46544 31.4872 9.52547 31.665 9.47126 31.8307L9.4713 31.8306L9.37616 31.7998L9.47119 31.831L10.7756 28.9188ZM10.7756 28.9188L10.7836 28.9435L11.1448 30.0593L11.1449 30.0596C11.1987 30.224 11.3507 30.3354 11.5238 30.3354H12.6961C12.8878 30.3354 12.9679 30.5813 12.813 30.6941M10.7756 28.9188L12.813 30.6941M12.813 30.6941L11.865 31.3842C11.865 31.3843 11.8649 31.3843 11.8649 31.3843C11.7255 31.4852 11.6664 31.6658 11.7204 31.8308C11.7204 31.8308 11.7204 31.8309 11.7204 31.831L12.0815 32.9464L12.813 30.6941ZM11.7776 33.1692L11.7189 33.2501L11.7777 33.1693L11.7776 33.1692Z" fill="white" stroke="#3171FB" stroke-width="0.2"/>
</g>
<path d="M13.9433 27.3158C14.1909 27.9093 14.3527 28.172 14.6764 28.4736C15.2381 28.9796 15.9712 29.2325 16.8756 29.2325C17.304 29.2325 17.7705 29.1547 18.1513 29.0282C18.8272 28.8044 19.4365 28.2498 19.7697 27.5493C20.122 26.8098 20.3124 25.8563 20.3124 24.8249C20.3124 23.7546 20.103 22.8303 19.7126 22.1978C19.1414 21.2638 18.1799 20.7578 16.9708 20.7578C15.0858 20.7578 13.791 21.9351 13.791 23.6573C13.791 25.2919 14.9049 26.3525 16.6185 26.3525C17.4563 26.3525 17.999 26.1482 18.5131 25.6519C18.4559 26.3136 18.3703 26.6639 18.1894 26.9752C17.9323 27.4131 17.5039 27.6563 16.9708 27.6563C16.59 27.6563 16.2853 27.5298 16.0759 27.2963C15.9807 27.1893 15.9236 27.092 15.8474 26.8779L13.9433 27.3158ZM16.9422 24.8152C16.1616 24.8152 15.6475 24.3189 15.6475 23.5697C15.6475 22.8303 16.1901 22.3243 16.9803 22.3243C17.7705 22.3243 18.3227 22.8303 18.3227 23.56C18.3227 24.3092 17.761 24.8152 16.9422 24.8152Z" fill="white"/>
<path d="M21.2115 27.3158C21.459 27.9093 21.6208 28.172 21.9445 28.4736C22.5062 28.9796 23.2393 29.2325 24.1437 29.2325C24.5721 29.2325 25.0386 29.1547 25.4194 29.0282C26.0954 28.8044 26.7047 28.2498 27.0379 27.5493C27.3901 26.8098 27.5805 25.8563 27.5805 24.8249C27.5805 23.7546 27.3711 22.8303 26.9807 22.1978C26.4095 21.2638 25.448 20.7578 24.2389 20.7578C22.3539 20.7578 21.0591 21.9351 21.0591 23.6573C21.0591 25.2919 22.173 26.3525 23.8867 26.3525C24.7244 26.3525 25.2671 26.1482 25.7812 25.6519C25.7241 26.3136 25.6384 26.6639 25.4575 26.9752C25.2005 27.4131 24.772 27.6563 24.2389 27.6563C23.8581 27.6563 23.5535 27.5298 23.344 27.2963C23.2488 27.1893 23.1917 27.092 23.1155 26.8779L21.2115 27.3158ZM24.2104 24.8152C23.4297 24.8152 22.9156 24.3189 22.9156 23.5697C22.9156 22.8303 23.4583 22.3243 24.2484 22.3243C25.0386 22.3243 25.5908 22.8303 25.5908 23.56C25.5908 24.3092 25.0291 24.8152 24.2104 24.8152Z" fill="white"/>
<path d="M30.298 25.3406C30.8882 25.3406 31.4118 25.146 31.7641 24.786C32.1449 24.4065 32.3448 23.813 32.3448 23.0541C32.3448 22.3146 32.1544 21.7308 31.7736 21.3416C31.4214 20.9816 30.9073 20.787 30.298 20.787C29.6982 20.787 29.1841 20.9816 28.8223 21.3416C28.4415 21.7308 28.2416 22.3243 28.2416 23.0638C28.2416 23.8033 28.4415 24.4065 28.8128 24.7763C29.1841 25.146 29.6887 25.3406 30.298 25.3406ZM30.298 21.8378C30.774 21.8378 31.0215 22.2465 31.0215 23.0541C31.0215 23.8811 30.774 24.2995 30.298 24.2995C29.8124 24.2995 29.5649 23.8714 29.5649 23.0541C29.5649 22.2562 29.822 21.8378 30.298 21.8378ZM35.0105 29.2034C35.6103 29.2034 36.1339 29.0088 36.4861 28.6488C36.867 28.2693 37.0669 27.666 37.0669 26.9168C37.0669 25.4865 36.3148 24.6498 35.02 24.6498C34.4107 24.6498 33.8966 24.8444 33.5349 25.2044C33.154 25.5936 32.9541 26.1871 32.9541 26.9168C32.9541 27.666 33.154 28.2693 33.5253 28.639C33.8966 29.0088 34.4107 29.2034 35.0105 29.2034ZM35.02 25.7006C35.496 25.7006 35.7436 26.1093 35.7436 26.8974C35.7436 27.7439 35.5056 28.1623 35.0105 28.1623C34.525 28.1623 34.2774 27.7341 34.2774 26.8974C34.2774 26.1093 34.5345 25.7006 35.02 25.7006ZM29.2983 28.9212L29.7934 29.3104L36.0006 21.0789L35.496 20.6897L29.2983 28.9212Z" fill="white"/>
<defs>
<clipPath id="clip0_8047_691">
<rect width="35.7143" height="35.7143" fill="white" transform="translate(7.14258 7.14282)"/>
</clipPath>
</defs>
</svg>
