<svg width="49" height="49" viewBox="0 0 49 49" fill="none" xmlns="http://www.w3.org/2000/svg">
<path fill-rule="evenodd" clip-rule="evenodd" d="M27.5125 0.0139849C27.2433 0.0380142 26.7247 0.152488 26.4016 0.25918C25.8642 0.436623 25.4968 0.604473 24.156 1.28523C22.8508 1.94786 22.4744 2.12082 21.9301 2.30803C20.7815 2.70317 20.0191 2.70403 17.6956 2.31276C17.2136 2.23161 16.6599 2.14443 16.465 2.11901C14.1668 1.81931 12.9468 2.22695 11.8892 3.64792C11.5163 4.14894 11.1441 4.81149 10.3964 6.30472C9.25543 8.58327 8.58254 9.25615 6.30396 10.3971C4.81069 11.1448 4.14813 11.517 3.6471 11.8899C2.2261 12.9474 1.81846 14.1674 2.11816 16.4656C2.14359 16.6605 2.23077 17.2142 2.31192 17.6961C2.7032 20.0196 2.70233 20.782 2.30719 21.9306C2.11998 22.4748 1.94701 22.8513 1.28437 24.1565C0.604017 25.4965 0.43575 25.8647 0.258749 26.4006C-0.292066 28.0686 0.0151536 29.2738 1.38646 30.8247C1.50925 30.9635 2.09149 31.565 2.68029 32.1613C3.26913 32.7576 3.85274 33.3724 3.97722 33.5276C4.85174 34.6178 5.12391 35.3713 5.45774 37.6266C5.74673 39.5787 5.89153 40.1775 6.26035 40.9463C6.48268 41.4097 6.68484 41.7031 7.00245 42.0235C7.66629 42.6931 8.6576 43.1078 10.2252 43.3715C10.4703 43.4127 10.9983 43.4945 11.3985 43.5532C13.4541 43.8549 14.2543 44.1191 15.1646 44.7965C15.6412 45.1513 15.8482 45.3413 17.0124 46.4928C17.625 47.0987 18.28 47.7198 18.4679 47.8729C19.2671 48.5245 19.9426 48.8619 20.6784 48.9773C20.9992 49.0275 21.655 48.991 22.0404 48.9015C22.7821 48.7293 23.253 48.5301 24.9283 47.6801C25.6144 47.332 26.3162 46.9877 26.4877 46.915C27.479 46.495 28.2348 46.3589 29.2319 46.4205C29.7814 46.4545 30.0935 46.4961 31.3293 46.7001C32.8436 46.95 32.9792 46.9648 33.765 46.9659C34.3203 46.9667 34.5169 46.9561 34.7266 46.9139C35.5445 46.7491 36.1223 46.4391 36.6699 45.8711C37.2134 45.3073 37.5376 44.79 38.3548 43.1828C38.9878 41.9376 39.1925 41.5701 39.5304 41.0721C39.9747 40.4171 40.4169 39.9748 41.0719 39.5305C41.57 39.1927 41.9375 38.988 43.1827 38.355C44.7899 37.5378 45.3072 37.2136 45.871 36.6701C46.4444 36.1174 46.7632 35.5179 46.9163 34.7049C46.9556 34.496 46.967 34.2763 46.9659 33.7504C46.9643 32.981 46.9479 32.8318 46.7001 31.3296C46.4905 30.0591 46.4527 29.7763 46.4202 29.2341C46.36 28.2284 46.4949 27.4796 46.915 26.4881C46.9877 26.3166 47.332 25.6148 47.6801 24.9287C48.5301 23.2535 48.7293 22.7825 48.9015 22.0409C48.991 21.6555 49.0275 20.9997 48.9773 20.679C48.8619 19.9431 48.5245 19.2676 47.8729 18.4684C47.7198 18.2805 47.0987 17.6256 46.4927 17.013C45.3412 15.8488 45.1512 15.6418 44.7965 15.1652C44.1086 14.2409 43.8578 13.4698 43.5378 11.2952C43.3854 10.26 43.3191 9.88085 43.2079 9.40912C42.9503 8.31609 42.5713 7.54635 42.0234 7.00321C41.703 6.6856 41.4095 6.48344 40.9461 6.26112C40.1774 5.8923 39.5786 5.7475 37.6264 5.45853C35.3687 5.12434 34.6288 4.85696 33.5273 3.97726C33.3721 3.85331 32.7573 3.27025 32.161 2.68157C30.7949 1.33299 30.5289 1.09391 29.9778 0.719777C29.1669 0.16927 28.3602 -0.0616973 27.5125 0.0139849ZM25.5784 6.71361C25.5352 6.79939 25.2605 7.33421 24.9679 7.90213L24.436 8.93471L24.4564 9.43686L24.4768 9.93898L24.0639 9.94902C23.8368 9.95455 23.6485 9.95862 23.6453 9.95802C23.6421 9.95746 23.6301 9.73356 23.6186 9.46053L23.5976 8.96406L22.9033 7.84255L22.2091 6.72104L22.3451 6.69781C22.4198 6.68504 22.6296 6.67835 22.8113 6.68296L23.1416 6.69133L23.5558 7.36849C23.7836 7.74093 23.9764 8.03924 23.9843 8.03139C23.9921 8.02352 24.1621 7.69876 24.362 7.30965L24.7255 6.60223L25.0794 6.58592C25.274 6.57695 25.4836 6.56694 25.5451 6.56364L25.657 6.55767L25.5784 6.71361ZM21.0826 7.31117C21.154 7.55303 21.1689 7.6395 21.142 7.65616C21.1222 7.66837 20.7715 7.77705 20.3626 7.8977C19.9538 8.01836 19.6132 8.13232 19.606 8.15095C19.5826 8.21053 19.7447 8.69439 19.7836 8.68114C20.1219 8.56575 21.1281 8.28553 21.1439 8.30231C21.1722 8.33237 21.3523 8.94056 21.3373 8.95553C21.3309 8.96195 21.0229 9.0583 20.6529 9.16966C20.2829 9.28101 19.9747 9.37757 19.968 9.38423C19.9586 9.39364 20.0945 9.88148 20.113 9.90462C20.1154 9.90759 20.4699 9.80401 20.9009 9.67442C21.3319 9.54486 21.6933 9.43882 21.7042 9.43882C21.7269 9.43882 21.9285 10.1175 21.9105 10.1334C21.8919 10.1499 19.5818 10.8348 19.5449 10.8348C19.5268 10.8348 19.4983 10.7914 19.4816 10.7383C19.3453 10.3072 18.5867 7.736 18.5867 7.7052C18.5867 7.66249 20.9321 6.93914 20.9677 6.97086C20.9785 6.98049 21.0302 7.1336 21.0826 7.31117ZM29.9357 7.46506C30.3634 7.62105 30.7817 7.7832 30.8653 7.82538C31.3244 8.05682 31.5412 8.4254 31.4523 8.82288C31.3824 9.13505 31.1277 9.41812 30.8811 9.45753L30.7698 9.47536L30.8708 9.57637C31.0159 9.72147 31.0691 9.8426 31.0843 10.0623C31.1082 10.4103 30.9447 10.7126 30.6419 10.8804C30.4921 10.9634 30.4637 10.9684 30.156 10.9675L29.8293 10.9664L28.9085 10.6291C28.4021 10.4436 27.9837 10.2886 27.9788 10.2846C27.9723 10.2794 28.8299 7.90415 29.0751 7.24826C29.0889 7.21151 29.1132 7.18143 29.1291 7.18143C29.1451 7.18143 29.5081 7.30906 29.9357 7.46506ZM29.654 8.12716C29.6456 8.14085 29.5926 8.27911 29.5364 8.43434L29.4342 8.7166L29.8319 8.85891C30.1493 8.97249 30.2541 8.99792 30.3516 8.98482C30.6658 8.9427 30.7453 8.57745 30.4745 8.41975C30.4025 8.37787 29.7151 8.10512 29.6751 8.10256C29.672 8.10236 29.6625 8.11343 29.654 8.12716ZM17.6871 9.46146C18.0664 10.078 18.4565 10.7118 18.5541 10.8701L18.7315 11.1579L18.4657 11.3231C18.3195 11.414 18.1858 11.4883 18.1686 11.4883C18.1514 11.4883 17.6417 11.3343 17.036 11.146C16.4302 10.9578 15.9306 10.8077 15.9257 10.8126C15.9209 10.8175 16.1248 11.1593 16.3789 11.5723C16.6329 11.9853 16.836 12.3268 16.8301 12.3313C16.8242 12.3357 16.6636 12.4344 16.4733 12.5505L16.1273 12.7618L15.2589 11.3519C14.7812 10.5764 14.3956 9.93699 14.4019 9.93091C14.4509 9.88362 14.9113 9.61704 14.9439 9.61704C14.9668 9.61704 15.4841 9.77716 16.0935 9.9729C16.703 10.1686 17.2065 10.3239 17.2125 10.318C17.2184 10.312 17.0154 9.97008 16.7614 9.55811C16.5074 9.14613 16.2995 8.79802 16.2995 8.7845C16.2995 8.76249 16.9464 8.34274 16.9827 8.34116C16.9909 8.34081 17.3079 8.84495 17.6871 9.46146ZM29.1959 9.37339C29.12 9.52644 29.0084 9.89196 29.0309 9.91341C29.0453 9.92704 29.2508 10.0075 29.4877 10.0922C29.9891 10.2715 30.1012 10.2761 30.2377 10.1233C30.4085 9.93224 30.2927 9.71871 29.9481 9.58929C29.2626 9.3318 29.2223 9.32022 29.1959 9.37339ZM34.4633 9.74327C34.6603 9.87993 34.7703 9.97489 34.7642 10.0032C34.5273 11.1064 33.9827 13.4784 33.9662 13.4784C33.9474 13.4784 33.3587 13.0698 33.2806 13.0026C33.2675 12.9913 33.2902 12.8502 33.3311 12.6891C33.372 12.5279 33.4028 12.3939 33.3996 12.3913C33.3292 12.3331 32.3232 11.6288 32.295 11.618C32.2731 11.6096 32.1445 11.6768 32.0092 11.7674L31.7632 11.932L31.6725 11.8645C31.6226 11.8273 31.4638 11.7125 31.3196 11.6093C31.17 11.5022 31.0686 11.4104 31.0834 11.3956C31.1373 11.3417 34.0786 9.53129 34.1149 9.52965C34.1358 9.5287 34.2926 9.62485 34.4633 9.74327ZM33.3799 10.8658L32.9216 11.1673L32.9943 11.2231C33.234 11.4071 33.585 11.6339 33.5979 11.6132C33.625 11.5693 33.8568 10.6203 33.8474 10.5919C33.8423 10.5767 33.6319 10.7 33.3799 10.8658ZM13.6989 11.7711C14.5425 12.0644 15.0331 12.9541 14.8188 13.8016C14.7324 14.1434 14.5824 14.3995 14.3122 14.667C13.9505 15.025 13.5654 15.1824 13.0607 15.1785C12.3306 15.1727 11.6879 14.6871 11.4396 13.9536C11.3559 13.7065 11.3621 13.2012 11.452 12.94C11.672 12.3007 12.2284 11.811 12.8643 11.6972C13.0946 11.656 13.4612 11.6884 13.6989 11.7711ZM37.0875 12.3505C37.6407 12.5445 38.1181 13.0678 38.2643 13.6405C38.3822 14.1023 38.2507 14.6498 37.9326 15.0215L37.8298 15.1415L37.5654 14.8179L37.3008 14.4942L37.3949 14.3118C37.6132 13.8886 37.4433 13.4063 36.9974 13.1835C36.8445 13.1071 36.7802 13.0922 36.6016 13.0922C36.4238 13.0922 36.3585 13.1071 36.2089 13.1819C35.9979 13.2874 35.7762 13.5121 35.6892 13.7088C35.606 13.897 35.6058 14.1879 35.6887 14.3754C35.765 14.5481 35.9688 14.7719 36.1196 14.8489C36.2865 14.934 36.4873 14.9497 36.6829 14.8928C36.7739 14.8663 36.8544 14.8447 36.8619 14.8447C36.8762 14.8447 37.3321 15.3977 37.3704 15.4616C37.4021 15.5145 37.0698 15.6653 36.7919 15.7242C36.2868 15.8311 35.7672 15.6581 35.3628 15.2483C35.04 14.9211 34.8506 14.5222 34.8164 14.0972C34.7524 13.3022 35.3215 12.5328 36.1412 12.306C36.3742 12.2416 36.8391 12.2634 37.0875 12.3505ZM12.8391 12.5379C12.6448 12.6024 12.544 12.6655 12.4251 12.7971C12.1 13.157 12.107 13.6599 12.4424 14.0269C12.65 14.254 12.8603 14.3506 13.151 14.3524C13.4093 14.3539 13.5788 14.2905 13.7645 14.1227C13.9402 13.964 14.0238 13.7741 14.037 13.5036C14.0467 13.3059 14.0376 13.253 13.967 13.0957C13.8712 12.8823 13.6618 12.6726 13.4567 12.5846C13.2774 12.5078 12.9943 12.4864 12.8391 12.5379ZM11.2384 15.7832C12.0371 16.136 12.7073 16.4315 12.7277 16.4398C12.7482 16.4482 12.7649 16.4703 12.7649 16.4889C12.765 16.5389 12.4595 17.2209 12.4371 17.2209C12.4266 17.2209 12.0996 17.0804 11.7105 16.9088C11.3214 16.7371 10.9979 16.6017 10.9916 16.608C10.9853 16.6143 11.1299 16.8449 11.3128 17.1206C11.4958 17.3963 11.6511 17.6433 11.6579 17.6694C11.6648 17.6956 11.6309 17.8042 11.5826 17.9108L11.4947 18.1046L11.3055 18.1362C11.2015 18.1536 10.9225 18.1978 10.6856 18.2344C10.4488 18.2709 10.2454 18.3087 10.2336 18.3183C10.2219 18.3279 10.5344 18.4757 10.9279 18.6468C11.3215 18.8179 11.6488 18.9717 11.6553 18.9886C11.6759 19.0423 11.3488 19.7315 11.3074 19.7216C11.251 19.708 8.35778 18.4335 8.33167 18.4107C8.30303 18.3856 8.53032 17.8708 8.5821 17.8434C8.60366 17.832 9.06905 17.7458 9.61633 17.6517C10.1636 17.5577 10.6155 17.4773 10.6204 17.473C10.6254 17.4687 10.3752 17.0679 10.0644 16.5824C9.50153 15.7031 9.49953 15.6993 9.53951 15.6064C9.68889 15.2587 9.74557 15.1417 9.76452 15.1417C9.77643 15.1417 10.4396 15.4304 11.2384 15.7832ZM39.8987 16.1251C39.9803 16.3227 40.051 16.4946 40.0557 16.507C40.0604 16.5195 39.763 16.6543 39.3948 16.8065C39.0266 16.9588 38.7255 17.091 38.7257 17.1002C38.7259 17.1094 39.1397 17.2568 39.6454 17.4277L40.5648 17.7383L40.7441 18.1712C40.8427 18.4092 40.9234 18.6126 40.9234 18.623C40.9234 18.6335 40.5258 18.5093 40.0397 18.347C39.5537 18.1848 39.142 18.0574 39.1248 18.064C39.1076 18.0705 38.8337 18.5051 38.5162 19.0296C38.1986 19.5541 37.9315 19.9832 37.9227 19.9832C37.9101 19.9832 37.6342 19.3401 37.552 19.1189C37.5409 19.0892 37.6762 18.8282 37.9109 18.4262C38.1207 18.0669 38.276 17.7703 38.2614 17.7568C38.247 17.7435 38.1 17.6887 37.9347 17.635L37.6341 17.5375L37.3293 17.6607C37.1616 17.7285 37.0157 17.7785 37.005 17.7719C36.9708 17.7508 36.6942 17.0441 36.7129 17.0255C36.73 17.0084 39.7045 15.7699 39.7353 15.767C39.7435 15.7663 39.817 15.9274 39.8987 16.1251ZM28.6139 16.8777C30.067 17.1595 31.0683 18.2227 31.3914 19.8269C31.4734 20.2338 31.5023 21.1237 31.4486 21.5851C31.2699 23.1214 30.4226 24.296 29.1685 24.7462C28.1622 25.1074 26.9161 25.0084 26.0418 24.4979C24.9951 23.8866 24.3793 22.7784 24.2599 21.2917C24.2226 20.8271 24.2576 20.2525 24.3505 19.805C24.6977 18.1325 25.8215 17.0318 27.3817 16.8362C27.6784 16.799 28.3194 16.8206 28.6139 16.8777ZM21.2748 16.9585C21.8196 17.0658 22.2185 17.2659 22.5884 17.6172C22.8459 17.8618 23.0392 18.1596 23.1441 18.4736C23.4168 19.2894 23.2576 20.1283 22.7294 20.6584L22.5154 20.8732L22.6582 20.9648C23.0002 21.1843 23.3314 21.6466 23.4232 22.0327C23.551 22.5704 23.4462 23.2353 23.1587 23.7106C22.6138 24.6113 21.3792 25.097 20.028 24.9422C18.862 24.8087 18.0795 24.2184 17.7381 23.2148C17.6443 22.9391 17.5653 22.5373 17.5984 22.5042C17.6135 22.489 18.0112 22.4808 18.5113 22.4852L19.3973 22.4931L19.4365 22.6268C19.5017 22.8494 19.6573 23.0778 19.8158 23.184C20.0427 23.3358 20.2303 23.3772 20.6319 23.3643C20.9275 23.3547 21.0019 23.3419 21.1437 23.276C21.3257 23.1914 21.4988 23.0353 21.5758 22.8864C21.6521 22.7389 21.665 22.4175 21.6013 22.2508C21.4932 21.9677 21.1946 21.7463 20.8298 21.6789C20.7337 21.6611 20.4703 21.6466 20.2446 21.6466H19.8342V20.9213V20.1961L20.3466 20.1862C20.838 20.1767 20.8659 20.1729 21.0287 20.093C21.2372 19.9906 21.4182 19.7912 21.4848 19.5908C21.6017 19.239 21.4723 18.8182 21.1879 18.6248C20.9935 18.4926 20.8481 18.46 20.5174 18.4745C20.1827 18.4892 20.0074 18.5636 19.8147 18.7726C19.6983 18.8989 19.5669 19.1794 19.5669 19.3016C19.5669 19.359 19.5462 19.3602 18.6541 19.3525L17.7413 19.3446L17.7495 19.211C17.765 18.9604 17.8779 18.5729 18.0231 18.2719C18.2742 17.7513 18.7507 17.3155 19.3011 17.1032C19.9123 16.8676 20.5688 16.8194 21.2748 16.9585ZM27.4485 18.57C27.0154 18.675 26.6268 19.0026 26.406 19.4486C26.0831 20.1009 26.0119 21.0245 26.2213 21.8432C26.4013 22.5471 26.8505 23.0555 27.4246 23.205C27.6419 23.2617 28.0854 23.2634 28.292 23.2083C28.9501 23.0332 29.4098 22.4379 29.563 21.5627C29.6211 21.2305 29.6215 20.55 29.5638 20.2209C29.4084 19.3346 28.9507 18.7471 28.2794 18.5722C28.0763 18.5193 27.662 18.5182 27.4485 18.57ZM9.40276 21.9048C9.44322 21.9145 9.46526 21.9371 9.4565 21.9599C9.44833 21.9812 9.41444 22.2168 9.38114 22.4835C9.14126 24.406 9.2571 26.2922 9.72742 28.1217C9.80093 28.4076 9.8628 28.6729 9.86494 28.7113C9.86827 28.7713 9.84483 28.7886 9.69742 28.8345C9.53901 28.8839 9.52413 28.8842 9.50034 28.839C9.46148 28.7651 9.24281 27.8894 9.15765 27.4666C8.8046 25.7143 8.76005 23.8983 9.02556 22.0819L9.05963 21.8489L9.19689 21.8687C9.27237 21.8796 9.36501 21.8958 9.40276 21.9048ZM40.1313 21.8969C40.1593 21.9697 40.2672 22.8894 40.2988 23.3248C40.3379 23.8613 40.3378 24.969 40.2988 25.4797C40.257 26.0258 40.1687 26.7146 40.0744 27.2307C39.995 27.6655 39.7265 28.7759 39.684 28.8452C39.6659 28.8748 39.6225 28.8711 39.4786 28.8274L39.2962 28.772L39.3687 28.5137C39.793 27.0015 39.9936 25.2572 39.9165 23.7484C39.8846 23.124 39.8306 22.5529 39.7629 22.1255C39.7464 22.0213 39.7383 21.9307 39.7449 21.9241C39.7582 21.9108 39.9906 21.8628 40.0663 21.8578C40.0931 21.856 40.1224 21.8736 40.1313 21.8969ZM20.3375 26.6501C21.0749 26.8194 21.6121 27.1711 21.9695 27.7185C22.2302 28.1179 22.3384 28.513 22.3362 29.0574C22.3313 30.2536 21.5841 31.1565 20.3689 31.4348C20.1845 31.477 19.9376 31.4882 18.9357 31.4996L17.7253 31.5134V29.0425V26.5716L18.9208 26.5854C19.9065 26.5969 20.1552 26.6082 20.3375 26.6501ZM26.5636 29.0223C27.1263 30.3589 27.5867 31.4652 27.5867 31.4807C27.5867 31.498 27.3357 31.5059 26.942 31.501L26.2972 31.493L26.1323 31.0772L25.9673 30.6613L24.9411 30.6535L23.9148 30.6457L23.7529 31.0693L23.591 31.493L22.9452 31.501C22.455 31.5071 22.2996 31.5003 22.2996 31.473C22.2996 31.4532 22.7489 30.3736 23.2981 29.074C23.8473 27.7743 24.3082 26.6805 24.3223 26.6434C24.3481 26.576 24.3483 26.576 24.9443 26.584L25.5405 26.5921L26.5636 29.0223ZM28.7053 27.6465C29.0215 28.2101 29.2901 28.674 29.3022 28.6775C29.3144 28.6809 29.585 28.2169 29.9036 27.6464L30.4828 26.6091L31.1585 26.608C31.5302 26.6074 31.8343 26.6153 31.8343 26.6255C31.8343 26.6358 31.4065 27.4026 30.8838 28.3297L29.9333 30.0152V30.7615V31.5078H29.3095H28.6857V30.76V30.012L27.76 28.3763C27.2509 27.4767 26.8148 26.7102 26.7909 26.6732L26.7475 26.6058L27.439 26.6138L28.1305 26.6218L28.7053 27.6465ZM18.9727 28.7084C18.9726 29.2597 18.9639 29.8612 18.9533 30.045L18.934 30.3791H19.4404C19.8598 30.3791 19.9792 30.3691 20.1355 30.3208C20.509 30.2054 20.786 29.9653 20.958 29.6079C21.0512 29.4143 21.0662 29.3518 21.0766 29.1147C21.096 28.6704 20.9836 28.3812 20.6803 28.0943C20.4984 27.9223 20.2259 27.7817 19.986 27.7362C19.898 27.7195 19.6341 27.7059 19.3995 27.7059H18.9728L18.9727 28.7084ZM24.6631 28.7255C24.5173 29.1041 24.3801 29.4573 24.3583 29.5103L24.3186 29.6069H24.9392H25.5599L25.2626 28.842C25.099 28.4214 24.9569 28.0682 24.9468 28.0572C24.9366 28.0462 24.809 28.3469 24.6631 28.7255ZM37.7846 30.8026C37.9529 30.9151 38.0413 30.9922 38.0314 31.018C38.0229 31.0401 37.8273 31.3407 37.5967 31.6861C37.366 32.0314 37.1708 32.331 37.1628 32.3518C37.1494 32.3869 37.6141 32.7204 37.6378 32.6927C37.6433 32.6863 37.8236 32.4171 38.0384 32.0945C38.2533 31.7718 38.4361 31.5078 38.4447 31.5078C38.4566 31.5078 38.9661 31.8398 39.0172 31.8808C39.0225 31.885 38.8545 32.147 38.644 32.463C38.4334 32.779 38.2522 33.0525 38.2414 33.0708C38.2237 33.1007 38.286 33.1496 38.6093 33.3595L38.6862 33.4095L39.141 32.726C39.3911 32.3501 39.6076 32.0425 39.6221 32.0425C39.6414 32.0425 40.126 32.3523 40.205 32.415C40.2215 32.4282 38.8354 34.4932 38.8142 34.487C38.7879 34.4794 36.1356 32.7272 36.0989 32.6932C36.0614 32.6585 37.4458 30.5824 37.4894 30.608C37.5076 30.6187 37.6404 30.7062 37.7846 30.8026ZM11.4252 30.8406C12.0093 30.9783 12.5481 31.4998 12.7435 32.1167C12.8371 32.4121 12.835 32.9047 12.739 33.1482C12.6721 33.3182 12.4309 33.6761 12.3834 33.6761C12.3561 33.6761 11.9035 33.0092 11.9035 32.9691C11.9035 32.9557 11.9318 32.8861 11.9664 32.8144C12.0173 32.7092 12.0267 32.6465 12.0154 32.4895C11.9907 32.1455 11.7779 31.8469 11.4535 31.7013C11.2945 31.6299 11.2438 31.6212 11.06 31.6331C10.789 31.6507 10.5567 31.7619 10.363 31.9667C10.1803 32.1599 10.1104 32.3562 10.1263 32.6316C10.1545 33.1182 10.5882 33.554 11.0123 33.522L11.1347 33.5128L10.8953 33.142C10.7636 32.938 10.6559 32.7613 10.6559 32.7492C10.6559 32.7371 10.7746 32.6474 10.9196 32.5499L11.1833 32.3726L11.6791 33.1164C11.9517 33.5255 12.1706 33.8642 12.1654 33.869C12.1545 33.8791 10.6879 34.8426 10.6367 34.8733C10.6154 34.886 10.539 34.7957 10.4341 34.6339L10.2657 34.3741L10.3792 34.278C10.4415 34.2252 10.5026 34.1818 10.5148 34.1815C10.5271 34.1813 10.5371 34.1692 10.5371 34.1547C10.5371 34.1402 10.487 34.1189 10.4257 34.1074C9.99647 34.0269 9.58508 33.6074 9.38625 33.0475C9.27956 32.747 9.27462 32.2718 9.3752 31.9831C9.55633 31.463 9.99593 31.0489 10.552 30.8745C10.8364 30.7853 11.1403 30.7735 11.4252 30.8406ZM35.5394 34.3056L34.9382 34.8906L35.1462 35.0991L35.3541 35.3077L35.8765 34.8057L36.3989 34.3038L36.6487 34.5559L36.8986 34.8079L36.3695 35.3161L35.8403 35.8242L36.04 36.0254L36.2396 36.2265L36.8364 35.6497L37.4333 35.0729L37.6858 35.3273L37.9382 35.5816L37.1957 36.3079C36.7873 36.7073 36.3796 37.0986 36.2897 37.1774L36.1264 37.3207L34.9976 36.1488C34.3768 35.5043 33.865 34.9665 33.8601 34.9536C33.8553 34.9408 34.2547 34.5415 34.7477 34.0661L35.6442 33.2019L35.8924 33.4613L36.1406 33.7207L35.5394 34.3056ZM14.1585 33.8354C14.3232 33.9802 14.4579 34.1044 14.4579 34.1115C14.4579 34.1186 14.1721 34.4506 13.8227 34.8493C13.4733 35.248 13.1558 35.6383 13.1172 35.7167C12.9575 36.041 13.0641 36.4105 13.3722 36.6011C13.4986 36.6792 13.5454 36.6909 13.7302 36.6909C14.0254 36.6909 14.1455 36.6104 14.5727 36.1261C14.7598 35.914 15.0516 35.5834 15.2212 35.3913L15.5297 35.0422L15.8398 35.3146C16.1052 35.5476 16.1448 35.5938 16.1134 35.634C16.0932 35.6598 15.7967 36.0005 15.4543 36.3911C14.8009 37.1365 14.5787 37.3373 14.2836 37.4491C13.9534 37.5743 13.6245 37.5748 13.2964 37.4508C12.9104 37.3049 12.516 36.9459 12.3314 36.5724C12.2293 36.3658 12.2166 36.3142 12.2056 36.0633C12.1904 35.7157 12.2616 35.4677 12.464 35.1628C12.607 34.9474 13.8043 33.558 13.8392 33.567C13.8501 33.5699 13.9938 33.6906 14.1585 33.8354ZM33.5841 35.6322C33.6835 35.7931 33.7647 35.9368 33.7643 35.9515C33.764 35.9661 33.5955 36.0773 33.39 36.1986C33.1844 36.3199 32.9888 36.4413 32.9553 36.4685C32.8951 36.5171 32.9036 36.5333 33.5558 37.6084C33.9197 38.2081 34.2125 38.7026 34.2065 38.7071C34.0877 38.7973 33.5228 39.1124 33.5025 39.0998C33.4871 39.0903 33.1925 38.618 32.8478 38.0501C32.5031 37.4823 32.2093 36.9996 32.1948 36.9774C32.1743 36.9461 32.0754 36.9938 31.7481 37.1931C31.5168 37.3338 31.3128 37.4521 31.2946 37.456C31.2426 37.4673 30.8775 36.8453 30.9216 36.8206C30.9417 36.8094 31.4994 36.4716 32.161 36.0699C32.8227 35.6683 33.3728 35.3397 33.3836 35.3396C33.3944 35.3395 33.4846 35.4712 33.5841 35.6322ZM17.9774 36.579C18.2439 36.7116 18.3194 36.7624 18.3196 36.8092C18.3201 36.9039 18.0827 40.0925 18.0647 40.2323L18.0486 40.3579L17.6608 40.1636L17.273 39.9693L17.2931 39.7113C17.3042 39.5694 17.319 39.4328 17.3261 39.4078C17.3356 39.3742 17.1752 39.2781 16.7127 39.0403L16.0864 38.7183L15.9628 38.8338C15.8948 38.8973 15.7954 38.9886 15.7419 39.0367L15.6448 39.1241L15.2593 38.9332C15.0472 38.8282 14.8738 38.7337 14.8738 38.7232C14.8738 38.7047 17.6025 36.4088 17.6245 36.4088C17.6306 36.4088 17.7894 36.4853 17.9774 36.579ZM30.8743 38.6515C31.1399 39.5009 31.3526 40.2092 31.347 40.2255C31.3338 40.2641 30.7796 40.4306 30.729 40.4112C30.7078 40.403 30.2513 40.1266 29.7145 39.7969C29.1778 39.4672 28.7351 39.2015 28.7307 39.2065C28.7264 39.2116 28.8402 39.5899 28.9838 40.0473C29.1273 40.5047 29.2359 40.8877 29.2251 40.8984C29.1916 40.9316 28.4788 41.1424 28.4608 41.1244C28.4515 41.115 28.2259 40.4078 27.9595 39.5526C27.633 38.5043 27.4861 37.9919 27.5087 37.9797C27.5271 37.9697 27.6635 37.9249 27.8118 37.8801L28.0814 37.7985L29.0539 38.4106C29.5887 38.7472 30.0508 39.0357 30.0809 39.0518C30.1437 39.0854 30.1753 39.2051 29.816 38.0476C29.6978 37.6666 29.6097 37.3458 29.6202 37.3348C29.6498 37.3039 30.2988 37.0964 30.348 37.1021C30.3783 37.1056 30.5375 37.5743 30.8743 38.6515ZM17.0881 37.8397C16.7151 38.1708 16.6844 38.2056 16.7337 38.2417C16.8613 38.335 17.3769 38.5806 17.397 38.5577C17.4218 38.5294 17.5289 37.5094 17.5092 37.4897C17.5022 37.4827 17.3128 37.6402 17.0881 37.8397ZM20.8519 37.7172C21.6801 37.8973 21.8561 37.9519 22.0845 38.0995C22.4815 38.3561 22.679 38.7837 22.5994 39.2144C22.5263 39.6095 22.3086 39.9078 21.9765 40.0679C21.8683 40.12 21.7757 40.1653 21.7708 40.1685C21.7659 40.1716 21.8901 40.4513 22.0468 40.7901C22.2036 41.1289 22.3268 41.4112 22.3205 41.4174C22.3097 41.4282 21.3774 41.2298 21.3625 41.2136C21.3586 41.2093 21.2477 40.9651 21.116 40.6711L20.8767 40.1364L20.6599 40.0857C20.5407 40.0578 20.4295 40.0344 20.4128 40.0337C20.3962 40.033 20.3393 40.2353 20.2865 40.4831C20.2336 40.7309 20.1847 40.9394 20.1778 40.9463C20.1709 40.9532 19.9905 40.9211 19.777 40.875C19.4794 40.8107 19.3887 40.7802 19.3887 40.7444C19.3887 40.7063 20.0013 37.8737 20.0609 37.6365C20.0704 37.5984 20.097 37.5672 20.12 37.5672C20.1429 37.5672 20.4723 37.6347 20.8519 37.7172ZM25.5603 38.1686C25.5988 38.2157 27.0873 41.4035 27.0756 41.4138C27.0708 41.4179 26.8738 41.4263 26.6377 41.4324L26.2086 41.4434L26.0882 41.1675L25.9679 40.8916L25.5372 40.9083C25.3003 40.9175 24.9853 40.9324 24.8371 40.9415L24.5677 40.958L24.4879 41.2007C24.4441 41.3341 24.3962 41.4619 24.3817 41.4847C24.3618 41.5157 24.2474 41.5297 23.9234 41.5407L23.4916 41.5554L23.8612 40.5786C24.0644 40.0414 24.3529 39.2781 24.5022 38.8824L24.7737 38.1631L25.1034 38.1536C25.2848 38.1484 25.455 38.1413 25.4816 38.1379C25.5082 38.1344 25.5436 38.1482 25.5603 38.1686ZM20.7245 38.4805C20.7241 38.4928 20.6847 38.6766 20.637 38.8889C20.5892 39.1013 20.5595 39.2833 20.5709 39.2933C20.621 39.3372 21.2488 39.4442 21.3817 39.4314C21.7389 39.3971 21.904 39.0439 21.6846 38.7832C21.5786 38.6573 21.4681 38.6077 21.1151 38.528C20.7832 38.453 20.7257 38.4459 20.7245 38.4805ZM25.0108 39.6782L24.8267 40.2107L25.1893 40.2086C25.3888 40.2075 25.5739 40.1974 25.6007 40.1863C25.6423 40.169 25.618 40.0945 25.4298 39.6636C25.3091 39.3872 25.2068 39.1576 25.2026 39.1533C25.1984 39.1491 25.1121 39.3853 25.0108 39.6782Z" fill="#17449C"/>
</svg>
