<svg width="262" height="177" viewBox="0 0 262 177" fill="none" xmlns="http://www.w3.org/2000/svg">
<mask id="mask0_0_1" style="mask-type:luminance" maskUnits="userSpaceOnUse" x="0" y="2" width="262" height="174">
<path d="M234.594 173.5C227.141 175.887 220.594 175 211.594 175C211.594 175 76.0945 175.5 27.0945 175.5C-8.37088 165.81 -2.5096 129.267 8.3439 107.186C19.3211 84.8547 -9.49406 41.688 36.8261 16.657C63.4688 2.25959 87.3652 25.2993 133.424 8.29029C175.007 -7.0659 228.647 6.66957 241.764 38.8759C250.788 61.0314 239.412 84.9141 250.788 96.49C269.237 115.265 262.444 164.581 234.594 173.5Z" fill="white"/>
</mask>
<g mask="url(#mask0_0_1)">
<path d="M226.879 178.5C221.612 181.555 232.112 184.5 202.112 184.5C202.112 184.5 95.1119 184.5 53.1119 184.5C23.7027 174.808 30.8784 134.291 39.8785 112.206C52.3085 81.7066 25.468 42.242 63.8785 17.2066C102.379 2.70653 115.185 65.0584 153.379 48.0465C187.861 32.6875 216.001 32.9944 226.879 65.2065C234.361 87.3658 225.928 94.0931 235.361 105.671C250.66 124.449 251.879 164 226.879 178.5Z" fill="#FFFDF5"/>
</g>
<path d="M112.345 116.183C112.345 116.183 112.416 117.278 112.362 117.638C112.193 118.748 111.745 122.503 107.613 128.386C107.154 129.04 106.813 129.749 106.406 130.38C103.191 135.367 104.17 135.327 103.324 140.248C103.307 140.343 103.333 140.6 103.395 141C103.598 142.327 104.19 145.239 104.919 149.09C105.638 152.883 106.491 157.588 107.235 162.59C107.377 163.545 107.525 164.524 107.676 165.521C98.3885 171.61 89.1561 171.76 81.4275 175.957C81.3652 170.541 81.8631 170.403 81.8051 165.572C81.7402 160.252 81.6762 155.716 81.6198 152.006C81.5238 145.693 81.448 141.77 81.4275 140.446C81.3992 138.651 80.4534 134.028 79.4141 128.866C78.0041 121.87 76.4232 113.884 76.7232 110.613C76.8451 109.292 77.7196 107.567 78.8953 105.771C79.8649 104.291 84.0642 103.13 86.7554 99.2965C88.4505 96.8815 95.2551 99.5297 95.9118 101.757C95.9145 101.764 95.916 101.771 95.9177 101.779C96.1865 102.686 96.4386 103.529 96.665 104.269C97.0867 105.65 97.4169 106.667 97.5847 107.053C97.6214 107.136 97.6499 107.19 97.6711 107.211C97.7935 107.341 97.9152 107.47 98.0356 107.596C98.5003 108.088 98.9431 108.557 99.3551 108.996C99.37 109.012 99.3839 109.028 99.3983 109.042C99.6034 109.262 99.8006 109.472 99.9881 109.673C100.023 109.71 100.055 109.746 100.089 109.781C100.885 110.629 101.508 111.301 101.877 111.699C101.907 111.73 101.935 111.761 101.959 111.787C102.15 111.993 102.252 112.104 102.252 112.104C102.252 112.104 103.243 110.878 104.655 110.534C105.097 110.425 105.579 110.404 106.083 110.532C106.216 110.566 106.352 110.61 106.489 110.665C106.622 110.719 107.145 111.007 107.853 111.42C107.866 111.428 107.879 111.435 107.893 111.443C110.016 112.686 112.537 115.588 112.345 116.183Z" fill="#FFA089"/>
<path d="M91.4005 128.314L91.2608 128.13C91.2732 128.121 92.5114 127.151 93.0116 124.884C93.4751 122.782 93.3821 119.104 90.3065 113.523L90.5084 113.412C92.2291 116.535 94.0984 121.072 93.2321 124.954C92.7095 127.295 91.4537 128.273 91.4005 128.314Z" fill="#E87765"/>
<path d="M79.6459 155.684C79.7111 155.097 81.4901 144.049 81.4901 144.049L105.893 141.321L108.755 154.713L79.6459 155.684Z" fill="#FFFDF5"/>
<path d="M104.647 148.76C102.471 148.784 99.7751 149.332 96.7648 150.483C90.6923 152.804 86.7674 150.967 81.421 150.756C80.5239 150.72 78.9635 150.698 77.0028 151.004C75.4929 151.241 74.6263 152.206 74.1896 153.687C73.1281 157.287 74.8237 165.688 75.8092 172.713C78.1071 171.938 75.3696 176.582 77.0028 175.986C87.7549 175.986 106.292 175.986 116.139 175.986C115.921 173.242 110.362 152.951 110.288 152.074C110.031 149.011 106.167 148.747 104.647 148.76Z" fill="#1E2632"/>
<path d="M103.021 122.845C100.829 123.499 98.5225 122.253 97.8683 120.062L88.2131 87.7209C87.5589 85.5296 88.8049 83.2229 90.9963 82.5686C93.1876 81.9145 95.4944 83.1606 96.1485 85.3519L105.804 117.693C106.458 119.884 105.212 122.191 103.021 122.845Z" fill="#080435"/>
<path d="M138.209 16.7642L73.0725 73.2012L69.5148 81.9669L77.5463 88.6587L164.664 88.4932L138.209 16.7642Z" fill="#F0DBA0"/>
<path d="M153.059 89.8954C163.623 86.0676 166.749 67.9597 160.041 49.4503C153.334 30.9409 139.333 19.0391 128.77 22.867C118.207 26.6948 115.081 44.8027 121.788 63.3121C128.495 81.8215 142.496 93.7233 153.059 89.8954Z" fill="#E1B53E"/>
<path d="M73.0725 73.2017L61.2088 78.339C61.2088 78.339 56.472 80.5149 58.5087 86.9011C60.5453 93.2874 65.1068 90.3773 77.5462 88.659C77.5462 88.659 68.737 82.5904 73.0725 73.2017Z" fill="#997410"/>
<path d="M151.003 90.4244L165.897 88.3647L140.483 15.3252L126.581 23.9157L134.953 67.192L151.003 90.4244Z" fill="#E1B53E"/>
<path d="M167.873 87.866C178.437 84.0382 181.084 64.6089 173.786 44.4695C166.488 24.3301 152.009 11.107 141.445 14.9348C130.882 18.7627 128.235 38.1919 135.533 58.3313C142.831 78.4707 157.31 91.6939 167.873 87.866Z" fill="#EACB78"/>
<path d="M166.721 83.4313C175.82 80.1341 177.976 63.0552 171.536 45.2846C165.097 27.5139 152.5 15.7809 143.401 19.0782C134.302 22.3754 132.146 39.4543 138.586 57.2249C145.025 74.9955 157.622 86.7285 166.721 83.4313Z" fill="#DBA617"/>
<path d="M146.243 42.0199L164.146 43.3077L167.177 54.1835L152.076 65.4157C150.52 66.8421 148.221 66.768 146.714 65.2546C143.152 61.6774 138.044 54.3567 142.357 44.4862C143.059 42.8788 144.598 41.9015 146.243 42.0199Z" fill="#EACB78"/>
<path d="M167.956 48.3602C168.705 51.5045 168.227 54.3468 166.89 54.7087C165.553 55.0706 163.862 52.815 163.114 49.6707C162.366 46.5265 162.843 43.6842 164.18 43.3223C165.518 42.9604 167.208 45.216 167.956 48.3602Z" fill="#FFF7D6"/>
<path d="M79.4134 128.867C84.7391 125.084 90.1446 109.345 88.8667 105.274C88.007 102.535 90.3911 96.6523 91.5786 94.3842C94.1382 89.4956 95.6167 87.26 94.571 84.5769C93.9808 83.0626 92.6344 83.1485 91.7971 83.6721C91.0269 84.1529 90.2633 85.2671 89.3222 86.8285C89.1308 87.1479 84.4837 92.2369 84.2765 92.5904C81.9417 96.5651 76.7031 107.12 76.7031 107.12C75.0611 111.805 79.4134 128.867 79.4134 128.867Z" fill="#FFA089"/>
<path d="M89.322 86.8287C89.5431 87.0673 89.8738 87.3074 90.3631 87.4349C91.5769 87.7517 92.8217 85.031 92.9456 84.6276C93.0319 84.3493 92.2732 83.9145 91.797 83.6724C91.0267 84.1532 90.2632 85.2674 89.322 86.8287Z" fill="#FFB0A1"/>
<path d="M95.5717 146.631C95.0928 146.098 95.2972 145.266 95.9688 145.015C96.344 144.875 96.7799 144.982 97.0474 145.28C97.5264 145.813 97.3219 146.646 96.6503 146.896C96.2751 147.036 95.8393 146.929 95.5717 146.631Z" fill="#100259"/>
<path d="M113.888 98.6649L113.593 97.6096C113.036 95.5362 109.808 95.265 106.169 96.4564L97.314 99.3683C93.5832 100.59 91.889 102.11 91.9664 104.325C91.9802 104.721 92.1236 105.254 92.3001 105.622C93.2398 107.582 95.2503 108.362 98.9811 107.141L108.238 104.155C111.876 102.964 114.445 100.738 113.888 98.6649Z" fill="#FFA089"/>
<path d="M115.532 107.007L115.229 105.751C114.685 103.512 111.574 103.024 108.058 104.04L98.7681 106.724C95.1627 107.766 92.8605 109.664 93.013 112.04C93.0418 112.488 93.173 112.987 93.3724 113.427C94.3389 115.564 97.1811 116.081 100.786 115.04L110.076 112.356C113.592 111.34 116.076 109.246 115.532 107.007Z" fill="#FFA089"/>
<path d="M116.501 114.216L116.178 113.259C115.549 111.394 113.177 110.886 110.681 111.653L105.64 113.472C103.659 114.154 101.253 115.362 101.852 117.872C102.575 120.901 106.29 120.742 107.435 120.296L113.02 118.579C115.516 117.812 117.131 116.081 116.501 114.216Z" fill="#FFA089"/>
<path d="M93.2436 104.67C92.7327 103.046 93.8837 102.156 95.2917 101.733L97.0688 101.2C97.7407 100.998 98.4006 101.298 98.5348 101.868L99.014 103.898C99.163 104.529 98.6752 105.228 97.93 105.452L95.9068 106.059C94.7074 106.419 93.4717 105.395 93.2436 104.67Z" fill="#FFB0A1"/>
<path d="M109.449 92.924C109.397 92.7336 109.022 91.5292 109.022 91.5292C108.446 89.8136 105.853 89.8708 103.057 90.9667L96.8025 93.419C93.9362 94.5427 92.1663 95.2542 92.2249 97.1797C92.2404 97.6899 92.5966 98.6438 92.8808 99.1053C94.0935 101.074 96.2917 100.37 99.158 99.2462L105.197 97.337C107.993 96.241 109.922 94.6747 109.449 92.924Z" fill="#FFA089"/>
<path d="M94.3475 112.747L94.2892 112.598C93.7619 111.253 94.3198 109.846 95.5288 109.471L97.1184 108.978C97.6955 108.799 98.3735 109.178 98.6251 109.82L99.4938 112.035C99.7729 112.747 99.4776 113.492 98.8377 113.69L97.0367 114.249C96.0069 114.568 94.7968 113.892 94.3475 112.747Z" fill="#FFB0A1"/>
<path d="M102.849 117.597L102.86 117.643C103.16 118.816 104.275 119.534 105.336 119.237L107.176 118.723C107.683 118.582 107.98 118.008 107.837 117.448L107.364 115.598C107.205 114.977 106.615 114.597 106.054 114.754L104.028 115.32C103.124 115.573 102.593 116.597 102.849 117.597Z" fill="#FFB0A1"/>
<path d="M93.0866 98.2631L92.9982 97.9723C92.6932 96.9693 93.3229 95.8219 94.3977 95.4226L95.6229 94.9675C96.1358 94.7769 96.6746 95.0126 96.8202 95.4913L97.3773 97.3238C97.5387 97.8546 97.2055 98.4618 96.6367 98.6731L95.2236 99.1981C94.3081 99.5382 93.3464 99.1175 93.0866 98.2631Z" fill="#FFB0A1"/>
<path d="M109.426 103.575L96.1187 107.594L96.1924 107.838L109.5 103.819L109.426 103.575Z" fill="#E87765"/>
<path d="M107.553 95.9351L94.8119 100.203L94.8929 100.445L107.634 96.177L107.553 95.9351Z" fill="#E87765"/>
<path d="M113.294 110.675L103.443 114.138L103.528 114.378L113.378 110.916L113.294 110.675Z" fill="#E87765"/>
<path d="M110.203 119.578C109.427 119.817 106.384 120.634 106.353 120.643L106.287 120.396C106.317 120.388 109.356 119.572 110.129 119.334L110.203 119.578Z" fill="#E87765"/>
<g filter="url(#filter0_d_0_1)">
<path d="M223.985 25.629C223.985 36.4073 215.275 45.1496 204.537 45.1496C200.197 45.1496 196.19 43.7212 192.951 41.3001L183.423 43.7416L187.389 34.8371C185.916 32.092 185.088 28.9515 185.088 25.629C185.088 14.8506 193.798 6.1084 204.537 6.1084C215.275 6.1084 223.985 14.8506 223.985 25.629Z" fill="white"/>
<path d="M223.985 25.6291C223.93 29.2156 222.98 32.8132 221.054 35.8464C220.621 36.634 220.03 37.3144 219.505 38.0393C218.893 38.6916 218.331 39.395 217.642 39.9687C217.302 40.2591 216.998 40.5935 216.629 40.8476L215.553 41.6473C215.193 41.9118 214.793 42.1175 214.416 42.3551L213.842 42.7005C213.647 42.8094 213.441 42.8958 213.241 42.9948L212.03 43.5657L210.772 44.0194C210.358 44.1883 209.922 44.2856 209.49 44.394C209.055 44.4919 208.631 44.636 208.189 44.6954C207.307 44.8224 206.43 44.9836 205.537 44.9852C204.649 45.0452 203.759 45.0298 202.873 44.9473C201.102 44.7817 199.357 44.3725 197.7 43.7323C196.047 43.085 194.484 42.211 193.067 41.1435L192.993 41.0879L192.902 41.111L183.363 43.5085L183.642 43.8412L187.63 34.9466L187.683 34.8284L187.622 34.7129C186.255 32.1422 185.48 29.2613 185.366 26.349C185.299 23.4417 185.767 20.4899 186.983 17.8306C188.168 15.1681 189.945 12.7745 192.148 10.8627C194.355 8.95197 197.025 7.59622 199.847 6.86142C202.672 6.13432 205.67 6.03862 208.541 6.62822C211.408 7.22992 214.135 8.49327 216.463 10.2879C221.154 13.8657 223.97 19.7171 223.985 25.6291ZM223.985 25.6291C223.999 19.7177 221.209 13.8371 216.515 10.2192C214.198 8.38987 211.47 7.08032 208.58 6.43792C205.689 5.80707 202.653 5.86427 199.774 6.56772C196.899 7.27832 194.162 8.62527 191.885 10.5475C189.607 12.4665 187.762 14.9041 186.54 17.6326C185.282 20.3535 184.785 23.3812 184.84 26.3672C184.934 29.3597 185.731 32.3308 187.157 34.9631L187.148 34.7294L183.203 43.6432L183 44.1019L183.482 43.976L192.998 41.4905L192.833 41.4581C194.293 42.5295 195.895 43.4001 197.585 44.0376C199.277 44.6679 201.055 45.0617 202.85 45.2074C203.749 45.2795 204.651 45.2844 205.548 45.2129C206.451 45.2003 207.336 45.027 208.225 44.8873C208.67 44.8219 209.098 44.6712 209.534 44.5667C209.969 44.4523 210.407 44.3483 210.823 44.1729L212.085 43.6999C212.493 43.5107 212.893 43.3061 213.297 43.1103C213.497 43.0085 213.704 42.9189 213.898 42.8067L214.472 42.4525C214.849 42.2088 215.247 41.9971 215.606 41.727L216.679 40.913C217.049 40.6562 217.352 40.319 217.692 40.0259C218.382 39.4467 218.942 38.7378 219.553 38.0805C220.076 37.3507 220.665 36.6659 221.096 35.8739C223.014 32.8225 223.947 29.2156 223.985 25.6291Z" fill="#FAFAFA"/>
<path d="M207.094 16.1342C207.117 14.8846 206.11 13.8594 204.86 13.8594C203.61 13.8594 202.604 14.8846 202.626 16.1342L202.855 28.7208C202.875 29.8138 203.767 30.6894 204.86 30.6894C205.953 30.6894 206.845 29.8138 206.865 28.7208L207.094 16.1342Z" fill="#FFC727"/>
<path d="M206.827 34.7723C206.827 35.8588 205.947 36.7468 204.86 36.7468C203.774 36.7468 202.893 35.8588 202.893 34.7723C202.893 33.6859 203.774 32.7979 204.86 32.7979C205.947 32.7979 206.827 33.6859 206.827 34.7723Z" fill="#FFC727"/>
</g>
<defs>
<filter id="filter0_d_0_1" x="173" y="0" width="60.9855" height="59.2642" filterUnits="userSpaceOnUse" color-interpolation-filters="sRGB">
<feFlood flood-opacity="0" result="BackgroundImageFix"/>
<feColorMatrix in="SourceAlpha" type="matrix" values="0 0 0 0 0 0 0 0 0 0 0 0 0 0 0 0 0 0 127 0" result="hardAlpha"/>
<feOffset dy="4"/>
<feGaussianBlur stdDeviation="5"/>
<feComposite in2="hardAlpha" operator="out"/>
<feColorMatrix type="matrix" values="0 0 0 0 0.333333 0 0 0 0 0.396078 0 0 0 0 0.490196 0 0 0 0.1 0"/>
<feBlend mode="normal" in2="BackgroundImageFix" result="effect1_dropShadow_0_1"/>
<feBlend mode="normal" in="SourceGraphic" in2="effect1_dropShadow_0_1" result="shape"/>
</filter>
</defs>
</svg>
