<?xml version="1.0" encoding="UTF-8"?>
<svg id="Layer_1" data-name="Layer 1" xmlns="http://www.w3.org/2000/svg" version="1.1" viewBox="0 0 97.6 94.5">
  <defs>
    <style>
      .cls-1 {
        fill: #1d1d1b;
      }

      .cls-1, .cls-2, .cls-3 {
        stroke-width: 0px;
      }

      .cls-2 {
        fill: #ff4554;
      }

      .cls-3 {
        fill: #fff;
      }
    </style>
  </defs>
  <g id="Ebene_2" data-name="Ebene 2">
    <g id="Ebene_1-2" data-name="Ebene 1-2">
      <path class="cls-1" d="M83,31.5v51.2c0,6.5-5.3,11.8-11.8,11.8,0,0,0,0,0,0H24c-6.5,0-11.8-5.3-11.8-11.8,0,0,0,0,0,0V11.8C12.2,5.3,17.4,0,24,0c0,0,0,0,0,0h27.5c3.1,0,6.1,1.2,8.4,3.5l19.7,19.7c2.2,2.2,3.5,5.2,3.4,8.3ZM77.1,35.5h-20.7c-4.9,0-8.9-4-8.9-8.9V5.9h-23.6c-3.3,0-5.9,2.6-5.9,5.9v70.9c0,3.3,2.6,5.9,5.9,5.9h47.2c3.3,0,5.9-2.6,5.9-5.9v-47.2ZM53.5,26.6c0,1.6,1.3,2.9,3,3h20.3c-.3-.8-.7-1.6-1.3-2.2L55.7,7.6c-.6-.6-1.4-1.1-2.2-1.3v20.3Z"/>
      <circle class="cls-1" cx="79.7" cy="61.4" r="17.9"/>
      <path class="cls-3" d="M81.4,70.1c-1,1-2.6,1-3.6,0l-10-9.5c-1.1-1-1.1-2.7,0-3.7s2.7-1.1,3.7,0l8.2,7.8,8.2-7.8c1.1-1,2.7-1,3.7,0s1,2.7,0,3.7l-10,9.5Z"/>
    </g>
  </g>
  <g>
    <path class="cls-2" d="M22.9,84.7H5.9c0-.1.2-.3.3-.4,5.8-7.2,11.6-14.3,17.4-21.5.2-.3.2-.4,0-.7-4.5-5.6-9-11.1-13.5-16.7-1.4-1.7-2.8-3.5-4.2-5.2,5.7,0,11.4,0,17.1,0,0,.1.2.3.3.4,5,6.1,9.9,12.3,14.9,18.4.9,1.1,1.9,2.3,2.8,3.4-.1.2-.2.3-.3.4-4.9,6.1-9.8,12.1-14.8,18.2-1,1.2-1.9,2.4-2.9,3.6Z"/>
    <path class="cls-2" d="M58.9,40.3c-1.4,1.7-2.7,3.4-4.1,5.1-3.7,4.5-7.3,9-11,13.6-.1.1-.2.3-.4.5-2.8-3.5-5.6-7-8.5-10.4,1-1.2,1.9-2.3,2.8-3.5,1.4-1.7,2.8-3.5,4.2-5.2,5.7,0,11.3,0,17,0Z"/>
    <path class="cls-2" d="M41.9,84.7c-1.1-1.4-2.2-2.8-3.4-4.2-1.1-1.4-2.3-2.8-3.4-4.2-.2-.2-.2-.4,0-.7,2.7-3.3,5.3-6.6,8-9.9,0,0,.1-.1.2-.3.4.5.8.9,1.1,1.4,4.7,5.8,9.5,11.7,14.2,17.5,0,0,.1.2.2.3h-17Z"/>
  </g>
</svg>